<svg xmlns="http://www.w3.org/2000/svg" xmlns:xlink="http://www.w3.org/1999/xlink" width="1086.021" height="676.315" viewBox="0 0 1086.021 676.315">
  <defs>
    <clipPath id="clip-path">
      <rect id="Rectangle_143" data-name="Rectangle 143" width="776.172" height="562.237" fill="none"/>
    </clipPath>
  </defs>
  <g id="Group_2448" data-name="Group 2448" transform="translate(-55.126 -35.304)">
    <g id="Group_2386" data-name="Group 2386" transform="translate(56.11 35.304)">
      <g id="Group_2374" data-name="Group 2374" transform="translate(0 153.18)">
        <g id="Group_2358" data-name="Group 2358" transform="translate(118.075)">
          <g id="Group_2357" data-name="Group 2357">
            <line id="Line_17" data-name="Line 17" x2="843.935" transform="translate(0 55.323)" fill="none" stroke="#ded8d5" stroke-miterlimit="10" stroke-width="1.968"/>
            <rect id="Rectangle_129" data-name="Rectangle 129" width="843.935" height="522.151" rx="6.521" fill="none" stroke="#ded8d5" stroke-miterlimit="10" stroke-width="1.968"/>
            <g id="Group_2356" data-name="Group 2356" transform="translate(40.178 20.506)">
              <path id="Path_3713" data-name="Path 3713" d="M165.191,145.8a7.72,7.72,0,1,1-7.72-7.718A7.72,7.72,0,0,1,165.191,145.8Z" transform="translate(-149.751 -138.077)" fill="#ffb1a5"/>
              <path id="Path_3714" data-name="Path 3714" d="M182.942,145.8a7.719,7.719,0,1,1-7.718-7.718A7.719,7.719,0,0,1,182.942,145.8Z" transform="translate(-137.501 -138.077)" fill="#ead254"/>
              <path id="Path_3715" data-name="Path 3715" d="M200.7,145.8a7.72,7.72,0,1,1-7.72-7.718A7.72,7.72,0,0,1,200.7,145.8Z" transform="translate(-125.252 -138.077)" fill="#00857b"/>
            </g>
          </g>
        </g>
        <g id="Group_2367" data-name="Group 2367" transform="translate(863.177 37.974)">
          <g id="Group_2361" data-name="Group 2361">
            <g id="Group_2360" data-name="Group 2360">
              <g id="Group_2359" data-name="Group 2359">
                <rect id="Rectangle_130" data-name="Rectangle 130" width="218.591" height="203.685" rx="5.991" fill="#ededed"/>
                <rect id="Rectangle_131" data-name="Rectangle 131" width="218.591" height="203.685" rx="5.991" fill="none" stroke="#ded8d5" stroke-miterlimit="10" stroke-width="1.968"/>
              </g>
            </g>
          </g>
          <g id="Group_2366" data-name="Group 2366" transform="translate(47.899 45.861)">
            <g id="Group_2364" data-name="Group 2364">
              <g id="Group_2363" data-name="Group 2363">
                <g id="Group_2362" data-name="Group 2362">
                  <rect id="Rectangle_132" data-name="Rectangle 132" width="123.441" height="104.838" rx="6.022" transform="translate(123.441 104.838) rotate(180)" fill="#c98bd2"/>
                </g>
              </g>
            </g>
            <g id="Group_2365" data-name="Group 2365" transform="translate(32.913 31.647)">
              <path id="Path_3716" data-name="Path 3716" d="M671.649,232.479H614.683v-38.2h56.966v38.2Z" transform="translate(-614.683 -194.276)" fill="none" stroke="#fff" stroke-linecap="round" stroke-linejoin="round" stroke-width="1.647"/>
              <path id="Path_3717" data-name="Path 3717" d="M614.683,194.276l28.483,22.446,28.483-22.446" transform="translate(-614.683 -194.276)" fill="none" stroke="#fff" stroke-linecap="round" stroke-linejoin="round" stroke-width="1.647"/>
            </g>
          </g>
        </g>
        <g id="Group_2373" data-name="Group 2373" transform="translate(0 211.032)">
          <g id="Group_2370" data-name="Group 2370">
            <g id="Group_2369" data-name="Group 2369">
              <g id="Group_2368" data-name="Group 2368">
                <rect id="Rectangle_133" data-name="Rectangle 133" width="208.466" height="184.229" rx="5.713" fill="#ededed"/>
                <rect id="Rectangle_134" data-name="Rectangle 134" width="208.466" height="184.229" rx="5.713" fill="none" stroke="#ded8d5" stroke-miterlimit="10" stroke-width="1.968"/>
              </g>
            </g>
          </g>
          <g id="Group_2372" data-name="Group 2372" transform="translate(43.47 31.552)">
            <rect id="Rectangle_135" data-name="Rectangle 135" width="120.544" height="117.183" rx="6.639" fill="#ffb1a5"/>
            <g id="Group_2371" data-name="Group 2371" transform="translate(26.981 25.659)">
              <path id="Path_3718" data-name="Path 3718" d="M107.724,294.594a34.082,34.082,0,1,0,48.2,0A34.218,34.218,0,0,0,107.724,294.594Zm48.121,4.908H144.983a69.1,69.1,0,0,0-4.223-10.235A30.786,30.786,0,0,1,155.845,299.5Zm-36.536,17.2a55.144,55.144,0,0,1,1.614-13.214h21.8a55.059,55.059,0,0,1,1.614,13.214Zm24.9,3.985a64.935,64.935,0,0,1-2.341,13.214H121.785a64.8,64.8,0,0,1-2.342-13.214Zm-12.381-32.739a30.961,30.961,0,0,1,4.815.373A62.627,62.627,0,0,1,141.58,299.5H122.067a62.626,62.626,0,0,1,4.942-11.181A30.977,30.977,0,0,1,131.823,287.947Zm-8.937,1.32a68.911,68.911,0,0,0-4.222,10.235H107.8A30.763,30.763,0,0,1,122.887,289.267Zm-17.792,14.22h12.44a59.3,59.3,0,0,0-1.742,13.214H101.141A30.586,30.586,0,0,1,105.094,303.487Zm0,30.413a30.556,30.556,0,0,1-3.953-13.214h14.711a64.209,64.209,0,0,0,2.075,13.214Zm2.709,3.985h11.3a82.684,82.684,0,0,0,4.2,10.36A30.764,30.764,0,0,1,107.8,337.885Zm24.02,11.556a31.043,31.043,0,0,1-4.027-.262,91.738,91.738,0,0,1-4.766-11.294h17.588a92.267,92.267,0,0,1-4.766,11.294A31.089,31.089,0,0,1,131.823,349.441Zm8.519-1.2a82.571,82.571,0,0,0,4.2-10.36h11.3A30.764,30.764,0,0,1,140.343,348.245Zm18.21-14.345H145.718a63.944,63.944,0,0,0,2.075-13.214h14.711A30.563,30.563,0,0,1,158.552,333.9Zm3.953-17.2H147.855a59.3,59.3,0,0,0-1.742-13.214h12.44A30.585,30.585,0,0,1,162.505,316.7Z" transform="translate(-97.797 -284.667)" fill="#fff"/>
            </g>
          </g>
        </g>
      </g>
      <g id="Group_2385" data-name="Group 2385" transform="translate(9.763)">
        <path id="Path_3719" data-name="Path 3719" d="M239.662,102.666H68.3a6.411,6.411,0,0,1-6.41-6.41h0a6.411,6.411,0,0,1,6.41-6.41H239.662a6.41,6.41,0,0,1,6.41,6.41h0A6.41,6.41,0,0,1,239.662,102.666Z" transform="translate(-61.887 2.33)" fill="#c98bd2"/>
        <path id="Path_3720" data-name="Path 3720" d="M730.926,350.35H647.752a6.41,6.41,0,0,1-6.41-6.41h0a6.41,6.41,0,0,1,6.41-6.41h83.173a6.411,6.411,0,0,1,6.41,6.41h0A6.411,6.411,0,0,1,730.926,350.35Z" transform="translate(337.938 173.233)" fill="#56dfed"/>
        <rect id="Rectangle_136" data-name="Rectangle 136" width="19.835" height="19.212" rx="2.861" transform="translate(995.612 578.524)" fill="#c98bd2"/>
        <rect id="Rectangle_137" data-name="Rectangle 137" width="19.835" height="19.212" rx="2.861" transform="translate(32.231 622.933)" fill="#ffb1a5"/>
        <g id="Group_2377" data-name="Group 2377" transform="translate(650.864 46.898)">
          <g id="Group_2376" data-name="Group 2376">
            <rect id="Rectangle_138" data-name="Rectangle 138" width="179.322" height="51.477" rx="3.012" fill="#ffb1a5"/>
            <g id="Group_2375" data-name="Group 2375" transform="translate(24.425 18.342)">
              <line id="Line_18" data-name="Line 18" x2="120.291" fill="none" stroke="#fff" stroke-miterlimit="10" stroke-width="1.18"/>
              <line id="Line_19" data-name="Line 19" x2="48.996" transform="translate(0 12.346)" fill="none" stroke="#fff" stroke-miterlimit="10" stroke-width="1.18"/>
            </g>
          </g>
          <path id="Path_3721" data-name="Path 3721" d="M458.571,90.068V110.13L483.8,90.068Z" transform="translate(-439.038 -44.415)" fill="#ffb1a5"/>
        </g>
        <g id="Group_2384" data-name="Group 2384" transform="translate(313.259)">
          <g id="Group_2382" data-name="Group 2382">
            <g id="Group_2381" data-name="Group 2381">
              <g id="Group_2380" data-name="Group 2380">
                <g id="Group_2379" data-name="Group 2379">
                  <g id="Group_2378" data-name="Group 2378">
                    <path id="Rectangle_139" data-name="Rectangle 139" d="M6.46,0h94.274a6.46,6.46,0,0,1,6.46,6.46V94.978a6.46,6.46,0,0,1-6.46,6.46H8.521A8.521,8.521,0,0,1,0,92.917V6.46A6.46,6.46,0,0,1,6.46,0Z" fill="#56dfed"/>
                  </g>
                </g>
              </g>
            </g>
          </g>
          <g id="Group_2383" data-name="Group 2383" transform="translate(30.619 22.47)">
            <path id="Path_3722" data-name="Path 3722" d="M313.358,84.35l-6.1-6.1a5.347,5.347,0,0,0-3.924-1.852,5.653,5.653,0,0,0-3.924,1.742l-3.486,3.488-.654-.326a10.047,10.047,0,0,1-1.09-.546,37.581,37.581,0,0,1-9.047-8.283A19.789,19.789,0,0,1,282.294,68c.872-.762,1.634-1.634,2.4-2.4.326-.328.654-.654.98-.982a5.315,5.315,0,0,0,0-8.065L282.62,53.5a9.9,9.9,0,0,1-.98-1.09l-2.072-2.072a5.649,5.649,0,0,0-3.923-1.742,5.4,5.4,0,0,0-3.924,1.742l-3.816,3.816A8.768,8.768,0,0,0,265.4,59.5a19.827,19.827,0,0,0,1.418,8.283,44.577,44.577,0,0,0,8.5,14.279,52.987,52.987,0,0,0,17.439,13.625,28.948,28.948,0,0,0,9.81,2.942h.762a8.654,8.654,0,0,0,6.54-2.834l.108-.108a16.774,16.774,0,0,1,1.962-1.962l1.418-1.416A5.469,5.469,0,0,0,313.358,84.35Zm-2.508,5.667-1.308,1.308c-.762.654-1.416,1.418-2.18,2.18a5.18,5.18,0,0,1-3.922,1.636h-.546a22.956,22.956,0,0,1-8.5-2.616,49.613,49.613,0,0,1-16.241-12.753A47.275,47.275,0,0,1,270.2,66.583a13.5,13.5,0,0,1-1.308-6.758,4.594,4.594,0,0,1,1.526-3.16l3.706-3.706a2.286,2.286,0,0,1,1.526-.762,2.078,2.078,0,0,1,1.524.762l1.962,1.962a10.2,10.2,0,0,0,1.09,1.09l3.052,3.052a2.552,2.552,0,0,1,.764,1.526,2.285,2.285,0,0,1-.764,1.526l-.98.98-2.726,2.726-.108.108a2.386,2.386,0,0,0-.654,2.724v.11a25.154,25.154,0,0,0,3.6,5.886,40.468,40.468,0,0,0,9.919,9.047,9.078,9.078,0,0,0,1.418.762,10.2,10.2,0,0,1,1.09.546l.108.108a2.5,2.5,0,0,0,3.052-.544l3.814-3.816a1.8,1.8,0,0,1,2.944,0l6.1,6.1A2.063,2.063,0,0,1,310.85,90.017Z" transform="translate(-265.365 -48.6)" fill="#fff"/>
          </g>
        </g>
      </g>
    </g>
    <g id="Group_2447" data-name="Group 2447" transform="translate(251.923 147.034)">
      <g id="Group_2446" data-name="Group 2446" clip-path="url(#clip-path)">
        <g id="Group_2445" data-name="Group 2445" transform="translate(5.074 6.822)">
          <g id="Group_2407" data-name="Group 2407" transform="translate(434.781 21.479)">
            <g id="Group_2387" data-name="Group 2387" transform="translate(9.466 337.255)">
              <path id="Path_3723" data-name="Path 3723" d="M568.173,325.935l-61.687-8.213.482,6.125-52.743,7.024s-34,85.293-4.034,272.876h42.9l15.442-190.208h5.484l14.955,190.208h42.9C601.841,416.163,568.173,325.935,568.173,325.935Z" transform="translate(-437.845 -317.722)" fill="#8e716c"/>
              <line id="Line_20" data-name="Line 20" x2="44.762" transform="translate(51.075 95.817)" fill="none" stroke="#282828" stroke-linecap="round" stroke-linejoin="round" stroke-width="1.233"/>
            </g>
            <g id="Group_2396" data-name="Group 2396" transform="translate(0 171.633)">
              <g id="Group_2393" data-name="Group 2393" transform="translate(136.918 51.449)">
                <g id="Group_2389" data-name="Group 2389" transform="translate(0 24.089)">
                  <g id="Group_2388" data-name="Group 2388">
                    <path id="Path_3724" data-name="Path 3724" d="M552.162,272.738c-5.278-8.425-34.924-8.126-36.489-8.31-8.014-.94,5.139,62.834,21.811,118.581a18.717,18.717,0,0,0,25.227,11.9l.333-.14a18.743,18.743,0,0,0,11.113-20.738C566.228,331.966,558.266,282.477,552.162,272.738Z" transform="translate(-513.261 -264.418)" fill="#ffb1a5"/>
                  </g>
                  <path id="Path_3725" data-name="Path 3725" d="M557.363,288.314,519.512,303l-3.549-17.959,39.194-9.777Z" transform="translate(-511.395 -256.933)" fill="#f3978e"/>
                  <path id="Path_3726" data-name="Path 3726" d="M551.674,310.754s-17.931,24.081-17.076,22.974,14.062-38.916,14.062-38.916Z" transform="translate(-498.558 -243.446)" fill="#f3978e"/>
                </g>
                <g id="Group_2392" data-name="Group 2392" transform="translate(23.417)">
                  <path id="Path_3727" data-name="Path 3727" d="M582.453,285.092l-51.4,66.593a18.9,18.9,0,0,0,4.671,27.4h0a18.9,18.9,0,0,0,26.9-6.846l42.781-78.93Z" transform="translate(-527.117 -226.064)" fill="#ffb1a5"/>
                  <g id="Group_2390" data-name="Group 2390" transform="translate(53.949 30.932)">
                    <path id="Path_3728" data-name="Path 3728" d="M573.728,312.106a21.2,21.2,0,1,1,26.692-13.657A21.2,21.2,0,0,1,573.728,312.106Z" transform="translate(-559.039 -266.909)" fill="#ffb1a5"/>
                    <path id="Path_3729" data-name="Path 3729" d="M595.284,280.746s5.8-6.025-4.49-10.246-23.02-3.253-31.143,16.472Z" transform="translate(-558.618 -268.467)" fill="#ffb1a5"/>
                  </g>
                  <g id="Group_2391" data-name="Group 2391" transform="translate(67.241)">
                    <path id="Path_3730" data-name="Path 3730" d="M600.1,250.909l21.521,9.33a2.219,2.219,0,0,1,.973,3.17l-28.311,52.88a2.707,2.707,0,0,1-3.361,1.291L569.4,308.25a2.218,2.218,0,0,1-.974-3.17L596.74,252.2A2.706,2.706,0,0,1,600.1,250.909Z" transform="translate(-566.065 -249.782)" fill="#372f5f"/>
                    <path id="Path_3731" data-name="Path 3731" d="M598.885,250.355l21.521,9.331a2.219,2.219,0,0,1,.973,3.17l-28.311,52.88a2.707,2.707,0,0,1-3.361,1.291l-21.52-9.331a2.217,2.217,0,0,1-.974-3.17l28.311-52.88A2.706,2.706,0,0,1,598.885,250.355Z" transform="translate(-566.904 -250.164)" fill="#261b43"/>
                    <path id="Path_3732" data-name="Path 3732" d="M593.812,253.461l18.909,8.2-23.073,43.1-18.909-8.2Z" transform="translate(-564.259 -247.89)" fill="#e6e6e6"/>
                    <path id="Path_3733" data-name="Path 3733" d="M612.721,261.659l-41.982,34.9,23.073-43.1Z" transform="translate(-564.259 -247.89)" fill="#fff"/>
                  </g>
                  <path id="Path_3734" data-name="Path 3734" d="M581.471,268.631a34.335,34.335,0,0,1,9.118,3.383,4.869,4.869,0,0,1,2.353,5.4h0a4.835,4.835,0,0,1-4.087,3.628l-11.188,1.411S571.83,292.519,564.2,293.65l7-17.666Z" transform="translate(-501.528 -237.422)" fill="#ffb1a5"/>
                </g>
              </g>
              <g id="Group_2395" data-name="Group 2395">
                <g id="Group_2394" data-name="Group 2394">
                  <path id="Path_3735" data-name="Path 3735" d="M529.644,219.721c-1.235-.007,79.339,11.149,92.634,103.012l-41.811,6.407-8.43,69.351H455.4L432.244,270.355s25.842-37.035,73.823-50.634Z" transform="translate(-432.244 -219.721)" fill="#56dfed"/>
                  <line id="Line_21" data-name="Line 21" y1="40.11" x2="3.629" transform="translate(148.224 69.309)" fill="none" stroke="#282828" stroke-linecap="round" stroke-linejoin="round" stroke-width="1.233"/>
                </g>
              </g>
            </g>
            <g id="Group_2406" data-name="Group 2406" transform="translate(36.317)">
              <path id="Path_3736" data-name="Path 3736" d="M513.776,233.526V201.617H476.383V233.9a72.618,72.618,0,0,0-10.045,4.075L495.5,255.347l29.815-17.373A48.647,48.647,0,0,0,513.776,233.526Z" transform="translate(-445.036 -60.579)" fill="#ffb1a5"/>
              <path id="Path_3737" data-name="Path 3737" d="M472.077,207.94s6.716,17.831,24.642,16.292c16.478-1.415,13.855-26.127,13.855-26.127Z" transform="translate(-441.076 -63.003)" fill="#282828"/>
              <g id="Group_2399" data-name="Group 2399" transform="translate(0 98.824)">
                <path id="Path_3738" data-name="Path 3738" d="M468.426,199.035c-5.861,5.317-18.967-14.848-13.3-20.51s9.983,3.221,9.983,3.221l2.53,6.018,1.906,8.153.455,2.136Z" transform="translate(-453.733 -176.639)" fill="#f3978e"/>
                <g id="Group_2398" data-name="Group 2398" transform="translate(4.127 8.737)">
                  <g id="Group_2397" data-name="Group 2397">
                    <path id="Path_3739" data-name="Path 3739" d="M456.175,182.1s4.436-2,8.377,4.436" transform="translate(-456.175 -181.809)" fill="none" stroke="#282828" stroke-linecap="round" stroke-linejoin="round" stroke-width="0.993"/>
                  </g>
                </g>
              </g>
              <g id="Group_2402" data-name="Group 2402" transform="translate(82.526 99.081)">
                <path id="Path_3740" data-name="Path 3740" d="M504.045,198.319c5.389,5.793,20.153-13.19,14.99-19.31s-10.221,2.364-10.221,2.364l-3.027,5.783-2.591,7.962-.632,2.089Z" transform="translate(-502.565 -176.791)" fill="#f3978e"/>
                <g id="Group_2401" data-name="Group 2401" transform="translate(4.416 8.65)">
                  <g id="Group_2400" data-name="Group 2400">
                    <path id="Path_3741" data-name="Path 3741" d="M513.9,182.362s-4.252-2.364-8.724,3.711" transform="translate(-505.178 -181.909)" fill="none" stroke="#282828" stroke-linecap="round" stroke-linejoin="round" stroke-width="0.993"/>
                  </g>
                </g>
              </g>
              <g id="Group_2403" data-name="Group 2403" transform="translate(4.412 36.624)">
                <path id="Path_3742" data-name="Path 3742" d="M456.344,184.687c0,26.692,20.351,39.348,45.456,39.348s45.454-12.656,45.454-39.348S526.9,139.834,501.8,139.834,456.344,157.993,456.344,184.687Z" transform="translate(-456.344 -139.834)" fill="#282828"/>
              </g>
              <path id="Path_3743" data-name="Path 3743" d="M460.012,184.037a182.484,182.484,0,0,0,4.627,40.563c2.263,9.826,8.629,16.692,17.627,22.218l1.639,1.007a30.935,30.935,0,0,0,31.488.348h0c9.748-5.684,16.576-13.177,18.675-23.721,3.821-19.176,4.239-40.416,4.239-40.416s3.635-41.364-38.588-40.562S460.012,184.037,460.012,184.037Z" transform="translate(-449.421 -100.705)" fill="#ffb1a5"/>
              <g id="Group_2405" data-name="Group 2405" transform="translate(9.718 80.246)">
                <path id="Path_3744" data-name="Path 3744" d="M481.648,181.441v5.724a2.605,2.605,0,0,0,.184.962,2.551,2.551,0,0,0,3.04,1.406l2.626-.7" transform="translate(-444.19 -154.747)" fill="none" stroke="#282828" stroke-linecap="round" stroke-linejoin="round" stroke-width="1.232"/>
                <path id="Path_3745" data-name="Path 3745" d="M486.242,169.476l-20.983,4.92s.953-5.34,9.538-7.282S486.242,169.476,486.242,169.476Z" transform="translate(-455.499 -164.98)" fill="#282828"/>
                <path id="Path_3746" data-name="Path 3746" d="M488.7,169.476l20.263,4.92s-.921-5.34-9.211-7.282S488.7,169.476,488.7,169.476Z" transform="translate(-439.327 -164.98)" fill="#282828"/>
                <ellipse id="Ellipse_20" data-name="Ellipse 20" cx="3.539" cy="3.529" rx="3.539" ry="3.529" transform="translate(19.233 16.382)" fill="#282828"/>
                <path id="Path_3747" data-name="Path 3747" d="M497.794,178.869a3.539,3.539,0,1,1-3.539-3.53A3.533,3.533,0,0,1,497.794,178.869Z" transform="translate(-437.933 -158.957)" fill="#282828"/>
                <path id="Path_3748" data-name="Path 3748" d="M475.052,190.172h27.29S490.247,204.885,475.052,190.172Z" transform="translate(-448.741 -148.723)" fill="#fff"/>
                <g id="Group_2404" data-name="Group 2404">
                  <circle id="Ellipse_21" data-name="Ellipse 21" cx="15.049" cy="15.049" r="15.049" transform="translate(0 21.283) rotate(-45)" fill="none" stroke="#c98bd2" stroke-miterlimit="10" stroke-width="1.342"/>
                  <circle id="Ellipse_22" data-name="Ellipse 22" cx="15.049" cy="15.049" r="15.049" transform="translate(36.97 21.283) rotate(-45)" fill="none" stroke="#c98bd2" stroke-miterlimit="10" stroke-width="1.342"/>
                  <path id="Path_3749" data-name="Path 3749" d="M480.982,178.843s3.564-3.326,6.872,0" transform="translate(-444.65 -157.56)" fill="none" stroke="#c98bd2" stroke-miterlimit="10" stroke-width="1.342"/>
                  <line id="Line_22" data-name="Line 22" x1="4.74" y1="0.12" transform="translate(1.493 21.163)" fill="none" stroke="#c98bd2" stroke-miterlimit="10" stroke-width="1.342"/>
                  <line id="Line_23" data-name="Line 23" y1="0.12" x2="4.769" transform="translate(73.302 21.163)" fill="none" stroke="#c98bd2" stroke-miterlimit="10" stroke-width="1.342"/>
                </g>
              </g>
              <path id="Path_3750" data-name="Path 3750" d="M511.548,194.345S494.666,171.523,498.56,148.4a33.262,33.262,0,0,1,15.793,22.58C517.617,187.259,511.548,194.345,511.548,194.345Z" transform="translate(-423.205 -97.298)" fill="#282828"/>
              <path id="Path_3751" data-name="Path 3751" d="M460.943,196.525s19.611-25.921,15.717-49.042c0,0-13.6,7.859-16.865,24.133S460.943,196.525,460.943,196.525Z" transform="translate(-450.38 -97.932)" fill="#282828"/>
              <path id="Path_3752" data-name="Path 3752" d="M538.234,161.6s-21.678,23.731-80.985,19.668c0,0,9.082-34.822,37.824-38.532C495.073,142.735,528.26,138.772,538.234,161.6Z" transform="translate(-451.307 -101.389)" fill="#282828"/>
              <circle id="Ellipse_23" data-name="Ellipse 23" cx="28.317" cy="28.317" r="28.317" transform="translate(52.937 55.911) rotate(-80.831)" fill="#282828"/>
            </g>
          </g>
          <g id="Group_2421" data-name="Group 2421" transform="translate(39.776 53.105)">
            <path id="Path_3753" data-name="Path 3753" d="M352.832,327.913l-52.743-7.024.482-6.126-61.687,8.215s-33.668,90.228-3.706,277.811h42.9l14.955-190.208h5.484l15.442,190.208h42.9C386.828,413.206,352.832,327.913,352.832,327.913Z" transform="translate(-181.785 -14.134)" fill="#282828"/>
            <g id="Group_2416" data-name="Group 2416" transform="translate(30.67)">
              <path id="Path_3754" data-name="Path 3754" d="M352.831,192.739c-7.139-8.4-12.854-18.2-17.711-31.943-5.214-14.759-22.289-8.759-22.289-8.759s-14.228-18.3-35.639-11.93-28.85,21.612-29.286,39.725-14.684,20.948-25.656,41.9c-19.367,36.994,13.241,68.154,72.6,59.51l.081-.576c5.844,1.775,13.01,2.55,21.754,2.031C388,278.466,381.115,226.014,352.831,192.739Z" transform="translate(-216.662 -135.576)" fill="#282828"/>
              <g id="Group_2410" data-name="Group 2410" transform="translate(111.254 62.2)">
                <path id="Path_3755" data-name="Path 3755" d="M284.062,196.077c5.861,5.315,18.967-14.848,13.3-20.51s-9.984,3.221-9.984,3.221l-2.528,6.018-1.906,8.153-.455,2.134Z" transform="translate(-282.492 -173.68)" fill="#f3978e"/>
                <g id="Group_2409" data-name="Group 2409" transform="translate(3.759 8.738)">
                  <g id="Group_2408" data-name="Group 2408">
                    <path id="Path_3756" data-name="Path 3756" d="M293.093,179.144s-4.436-2-8.377,4.435" transform="translate(-284.716 -178.851)" fill="none" stroke="#282828" stroke-linecap="round" stroke-linejoin="round" stroke-width="0.993"/>
                  </g>
                </g>
              </g>
              <g id="Group_2413" data-name="Group 2413" transform="translate(27.441 62.455)">
                <path id="Path_3757" data-name="Path 3757" d="M248.968,195.361c-5.389,5.792-20.153-13.19-14.99-19.312s10.221,2.366,10.221,2.366l3.027,5.783,2.591,7.962.632,2.089Z" transform="translate(-232.899 -173.832)" fill="#f3978e"/>
                <g id="Group_2412" data-name="Group 2412" transform="translate(4.409 8.652)">
                  <g id="Group_2411" data-name="Group 2411">
                    <path id="Path_3758" data-name="Path 3758" d="M235.508,179.4s4.252-2.364,8.724,3.711" transform="translate(-235.508 -178.951)" fill="none" stroke="#282828" stroke-linecap="round" stroke-linejoin="round" stroke-width="0.993"/>
                  </g>
                </g>
              </g>
              <g id="Group_2414" data-name="Group 2414" transform="translate(32.194)">
                <path id="Path_3759" data-name="Path 3759" d="M326.62,181.727c0,26.692-20.349,39.35-45.454,39.35s-45.454-12.658-45.454-39.35,20.351-44.851,45.454-44.851S326.62,155.035,326.62,181.727Z" transform="translate(-235.711 -136.876)" fill="#282828"/>
              </g>
              <rect id="Rectangle_140" data-name="Rectangle 140" width="37.393" height="48.421" transform="translate(58.776 104.413)" fill="#ffb1a5"/>
              <path id="Path_3760" data-name="Path 3760" d="M248.211,196.872s10.409,20.773,23.214,24.017a18.022,18.022,0,0,0,10.373-.6c4.82-1.709,10.933-8.893,11.97-16.844l.483-4.543S271.465,211.308,248.211,196.872Z" transform="translate(-194.892 -95.479)" fill="#282828"/>
              <path id="Path_3761" data-name="Path 3761" d="M317.846,181.079a182.456,182.456,0,0,1-4.627,40.562c-2.263,9.826-8.629,16.692-17.627,22.22l-1.639,1.006a30.935,30.935,0,0,1-31.488.35h0c-9.75-5.683-16.576-13.177-18.676-23.721-3.819-19.176-4.237-40.416-4.237-40.416s-3.635-41.366,38.588-40.562S317.846,181.079,317.846,181.079Z" transform="translate(-200.921 -134.371)" fill="#ffb1a5"/>
              <g id="Group_2415" data-name="Group 2415" transform="translate(49.078 47.035)">
                <path id="Path_3762" data-name="Path 3762" d="M260.938,179.808v3.4a2.594,2.594,0,0,0,.184.96,2.554,2.554,0,0,0,3.04,1.4l2.626-.695" transform="translate(-235.189 -154.288)" fill="none" stroke="#282828" stroke-linecap="round" stroke-linejoin="round" stroke-width="1.23"/>
                <path id="Path_3763" data-name="Path 3763" d="M266.144,167.8l22.464,5.317s-1.021-5.773-10.211-7.87S266.144,167.8,266.144,167.8Z" transform="translate(-231.597 -164.707)" fill="#282828"/>
                <path id="Path_3764" data-name="Path 3764" d="M268.455,167.8,245.7,173.121s1.034-5.773,10.341-7.87S268.455,167.8,268.455,167.8Z" transform="translate(-245.702 -164.707)" fill="#282828"/>
                <path id="Path_3765" data-name="Path 3765" d="M257.232,176.227a3.539,3.539,0,1,1-3.539-3.519A3.528,3.528,0,0,1,257.232,176.227Z" transform="translate(-242.63 -159.187)" fill="#282828"/>
                <path id="Path_3766" data-name="Path 3766" d="M277.084,176.227a3.539,3.539,0,1,1-3.539-3.519A3.528,3.528,0,0,1,277.084,176.227Z" transform="translate(-228.932 -159.187)" fill="#282828"/>
                <path id="Path_3767" data-name="Path 3767" d="M252.959,186.7H284.02s-2.192,8.534-16.276,8.534A16.474,16.474,0,0,1,252.959,186.7Z" transform="translate(-240.695 -149.533)" fill="#fff"/>
              </g>
              <path id="Path_3768" data-name="Path 3768" d="M241.38,191.387s16.881-22.823,12.988-45.944a33.268,33.268,0,0,0-15.793,22.582C235.311,184.3,241.38,191.387,241.38,191.387Z" transform="translate(-202.207 -130.965)" fill="#282828"/>
              <path id="Path_3769" data-name="Path 3769" d="M292.491,191.26s-19.611-23.614-15.717-46.735c0,0,13.6,7.859,16.865,24.133S292.491,191.26,292.491,191.26Z" transform="translate(-175.537 -131.598)" fill="#282828"/>
              <path id="Path_3770" data-name="Path 3770" d="M240.679,158.641s19.371,26.036,78.678,21.973c0,0-6.775-37.129-35.517-40.837C283.84,139.777,250.653,135.814,240.679,158.641Z" transform="translate(-200.09 -135.056)" fill="#282828"/>
            </g>
            <g id="Group_2420" data-name="Group 2420" transform="translate(0 137.059)">
              <g id="Group_2418" data-name="Group 2418" transform="translate(0 76.009)">
                <g id="Group_2417" data-name="Group 2417">
                  <path id="Path_3771" data-name="Path 3771" d="M215.314,478.191c-.862,1.357,49.362-218.526,34.451-215.2-1.36.3-27.476,2.729-31.356,10.62-11.252,22.878-19.322,202.915-19.322,202.915Z" transform="translate(-198.118 -262.952)" fill="#ffb1a5"/>
                  <path id="Path_3772" data-name="Path 3772" d="M199.483,391.19s-8.1,37.559,22.507,41.665a4.3,4.3,0,0,0,4.629-2.843l.088-.255a4.3,4.3,0,0,0-2.381-5.313c-4.989-2.231-12.727-7.869-8.888-20.669,0,0,4.423-.542,6.865,7.71a3.547,3.547,0,0,0,4.987,2.192h0a3.548,3.548,0,0,0,1.92-3.628c-.733-5.78-3.642-19.692-14.8-23.425Z" transform="translate(-198.514 -177.618)" fill="#ffb1a5"/>
                </g>
                <path id="Path_3773" data-name="Path 3773" d="M205.181,313.774s28.938,40.754,29.09,39.965,10.12-57.215,10.12-57.215l-35.115-15.212Z" transform="translate(-193.913 -250.283)" fill="#f3978e"/>
              </g>
              <g id="Group_2419" data-name="Group 2419" transform="translate(6.859)">
                <path id="Path_3774" data-name="Path 3774" d="M287.385,222.83c1.235-.007-71.518,1.3-84.813,93.16l41.811,6.405,8.43,69.353H369.45l23.156-128.136s-16.462-27.762-64.445-41.363Z" transform="translate(-202.572 -215.028)" fill="#00857b"/>
                <path id="Path_3775" data-name="Path 3775" d="M231.716,236.884S242,250.532,284.125,250.532c41.735,0,52.407-14.363,52.407-14.363s-24.6-13.746-53.152-18.193A189.13,189.13,0,0,0,231.716,236.884Z" transform="translate(-182.463 -217.976)" fill="#ffb1a5"/>
              </g>
            </g>
          </g>
          <g id="Group_2444" data-name="Group 2444">
            <g id="Group_2423" data-name="Group 2423" transform="translate(239.028 500.095)">
              <g id="Group_2422" data-name="Group 2422">
                <path id="Path_3776" data-name="Path 3776" d="M316.414,401.367l.1,183.205h90.633l6.965-183.205Z" transform="translate(-316.414 -401.367)" fill="#005683"/>
                <path id="Path_3777" data-name="Path 3777" d="M472.745,401.367l-.1,183.205H382.011l-6.965-183.205Z" transform="translate(-275.958 -401.367)" fill="#005683"/>
                <rect id="Rectangle_141" data-name="Rectangle 141" width="93.71" height="63.648" transform="translate(53.577)" fill="#005683"/>
              </g>
              <line id="Line_24" data-name="Line 24" x2="64.635" transform="translate(66.667 63.648)" fill="none" stroke="#282828" stroke-linecap="round" stroke-linejoin="round" stroke-width="1.397"/>
            </g>
            <g id="Group_2434" data-name="Group 2434" transform="translate(0 172.213)">
              <g id="Group_2425" data-name="Group 2425" transform="translate(385.179 25.069)">
                <g id="Group_2424" data-name="Group 2424" transform="translate(47.068 142.932)">
                  <path id="Path_3778" data-name="Path 3778" d="M491.568,306.763c5.619,62.081-.308,107.313,1.332,221.546l-54.1,2.265-8.06-213.822Z" transform="translate(-430.745 -306.763)" fill="#ffb1a5"/>
                  <path id="Path_3779" data-name="Path 3779" d="M434.7,348.277s33.5-3.067,56.4-18.174l-.6-13.3-55.817,7.6Z" transform="translate(-428.029 -299.833)" fill="#f3978e"/>
                </g>
                <path id="Path_3780" data-name="Path 3780" d="M402.894,222.188S509.295,248.948,528.574,384c0,0-52.076,22.577-104.263,12.866l11.74-45.172Z" transform="translate(-402.894 -222.188)" fill="#c98bd2"/>
              </g>
              <g id="Group_2432" data-name="Group 2432">
                <g id="Group_2429" data-name="Group 2429">
                  <path id="Path_3781" data-name="Path 3781" d="M228.017,255.417l79.224,93.56L283,417.25s-60.215-83.718-87.272-148.424Z" transform="translate(-160.661 -174.191)" fill="#ffb1a5"/>
                  <g id="Group_2428" data-name="Group 2428">
                    <g id="Group_2427" data-name="Group 2427">
                      <g id="Group_2426" data-name="Group 2426">
                        <path id="Path_3782" data-name="Path 3782" d="M239.842,279.928s-27.819,15.717-34.9,10.032c-12.366-9.936-22.583-46.3-22.583-46.3s52.022-19.612,51.533-18.847S239.842,279.928,239.842,279.928Z" transform="translate(-169.882 -195.326)" fill="#ffb1a5"/>
                        <path id="Path_3783" data-name="Path 3783" d="M220.219,278.146c-.492-2.8,10.316-33.014,14.022-44.344a5,5,0,0,0-3.956-6.3h0c-1.932-.37-4.991-.132-6.436,2.638l-13.049,22.3Z" transform="translate(-150.26 -193.544)" fill="#ffb1a5"/>
                        <path id="Path_3784" data-name="Path 3784" d="M223.749,258.141l-8.959-44.572a5.61,5.61,0,0,0-6.485-4.448h0a4.832,4.832,0,0,0-3.966,5.359l3.9,33.188Z" transform="translate(-154.742 -206.199)" fill="#ffb1a5"/>
                        <path id="Path_3785" data-name="Path 3785" d="M214.41,242.856l-12.166-31.828a5.583,5.583,0,0,0-6.912-3.4h0a4.811,4.811,0,0,0-3.181,5.709l9.028,36.778Z" transform="translate(-163.218 -207.354)" fill="#ffb1a5"/>
                        <path id="Path_3786" data-name="Path 3786" d="M208.309,248.1l-15.393-31.273a6.119,6.119,0,0,0-7.813-3h0a5.331,5.331,0,0,0-2.75,7.041l12.271,29.524Z" transform="translate(-170.192 -203.212)" fill="#ffb1a5"/>
                        <path id="Path_3787" data-name="Path 3787" d="M187.459,246.3l-12.078-19.16a4.326,4.326,0,0,1,2.111-5.78h0a4.944,4.944,0,0,1,6.037,1.756l15.883,22.034Z" transform="translate(-174.978 -197.973)" fill="#ffb1a5"/>
                      </g>
                    </g>
                    <path id="Path_3788" data-name="Path 3788" d="M222.537,236.121s-18.139-1.9-20,22.271" transform="translate(-155.964 -187.529)" fill="none" stroke="#282828" stroke-linecap="round" stroke-linejoin="round" stroke-width="1.532"/>
                  </g>
                </g>
                <g id="Group_2431" data-name="Group 2431" transform="translate(106.27 22.728)">
                  <g id="Group_2430" data-name="Group 2430" transform="translate(0 54.552)">
                    <path id="Path_3789" data-name="Path 3789" d="M237.859,386.93s14.9,51.567,44.592,44.711,75.971-70.274,75.971-70.274L348.064,253.082,264.725,355.653Z" transform="translate(-237.859 -253.082)" fill="#ffb1a5"/>
                    <path id="Path_3790" data-name="Path 3790" d="M269.051,298.722s28.137,42.441,52.14,57.406L336.9,336.3l-60.605-46.882Z" transform="translate(-216.336 -228.012)" fill="#f3978e"/>
                  </g>
                  <path id="Path_3791" data-name="Path 3791" d="M393.594,220.8s-82.607,18.619-126.629,114.626c0,0,26.6,40.077,69.238,57.889l28.548-34.973Z" transform="translate(-217.776 -220.803)" fill="#c98bd2"/>
                </g>
              </g>
              <g id="Group_2433" data-name="Group 2433" transform="translate(228.262 15.259)">
                <path id="Path_3792" data-name="Path 3792" d="M363.351,223.555a206.876,206.876,0,0,0-52.556,38.5L317.161,542.7H520.514l-.659-279.193s-25.632-25.085-53.412-37.314C442.847,215.807,386.291,211.789,363.351,223.555Z" transform="translate(-309.526 -216.383)" fill="#c98bd2"/>
                <path id="Rectangle_142" data-name="Rectangle 142" d="M0,0H56.569a0,0,0,0,1,0,0V39.833A16.736,16.736,0,0,1,39.833,56.569h-23.1A16.736,16.736,0,0,1,0,39.833V0A0,0,0,0,1,0,0Z" transform="translate(121.765 87.352)" fill="none" stroke="#282828" stroke-linecap="round" stroke-linejoin="round" stroke-width="1.397"/>
                <line id="Line_25" data-name="Line 25" y1="91.806" x2="2.638" transform="translate(210.657 93.726)" fill="none" stroke="#282828" stroke-linecap="round" stroke-linejoin="round" stroke-width="1.397"/>
                <line id="Line_26" data-name="Line 26" x1="4.394" y1="79.581" transform="translate(0 90.651)" fill="none" stroke="#282828" stroke-linecap="round" stroke-linejoin="round" stroke-width="1.397"/>
              </g>
            </g>
            <g id="Group_2443" data-name="Group 2443" transform="translate(266.039)">
              <path id="Path_3793" data-name="Path 3793" d="M347.157,190.245l-8.477-41.937c-.477-3.415-1.8-8.687-.179-13.64,2.685-8.195,12.553-23.932,29.418-16.726l3.647,16.6s-17.515,3.535-24.542,26.449Z" transform="translate(-328.726 -98.105)" fill="#282828"/>
              <path id="Path_3794" data-name="Path 3794" d="M365.16,122.313c-.306,5.509-5.17,29.619-22.269,38.4C342.891,160.717,327.914,128.6,365.16,122.313Z" transform="translate(-327.21 -93.82)" fill="#282828"/>
              <path id="Path_3795" data-name="Path 3795" d="M425.127,245.133h0V173.921H359.481v71.212l-19.542,8.908s4.583,29.514,53.054,30.168,53.34-28.717,53.34-28.717Z" transform="translate(-327.193 -58.21)" fill="#ffb1a5"/>
              <path id="Path_3796" data-name="Path 3796" d="M355.588,125.29s12.048-31.784,49.2-14.887c22.485,10.226,28.784,23.939,31.464,33.653a39.083,39.083,0,0,1,1,11.333l-8.986,42.2L393.184,139.2l-33.949,2.692Z" transform="translate(-316.395 -105.453)" fill="#282828"/>
              <g id="Group_2437" data-name="Group 2437" transform="translate(107.976 87.605)">
                <path id="Path_3797" data-name="Path 3797" d="M400.185,161.826s4.426-7.039,13.554-3.578,5,25.632-8.693,28.456a10.83,10.83,0,0,1-8.758-2.29S399.654,168.04,400.185,161.826Z" transform="translate(-396.288 -157.291)" fill="#f3978e"/>
                <g id="Group_2436" data-name="Group 2436" transform="translate(2.567 8.53)">
                  <g id="Group_2435" data-name="Group 2435">
                    <path id="Path_3798" data-name="Path 3798" d="M410.881,162.586s-7.647-2.552-13.074,8.709" transform="translate(-397.807 -162.338)" fill="none" stroke="#282828" stroke-linecap="round" stroke-linejoin="round" stroke-width="1.397"/>
                  </g>
                </g>
              </g>
              <g id="Group_2440" data-name="Group 2440" transform="translate(0 87.605)">
                <path id="Path_3799" data-name="Path 3799" d="M350.828,161.826s-4.426-7.039-13.554-3.578-5,25.632,8.693,28.456a10.83,10.83,0,0,0,8.758-2.29S351.357,168.04,350.828,161.826Z" transform="translate(-332.397 -157.291)" fill="#f3978e"/>
                <g id="Group_2439" data-name="Group 2439" transform="translate(6.687 8.53)">
                  <g id="Group_2438" data-name="Group 2438">
                    <path id="Path_3800" data-name="Path 3800" d="M336.354,162.586s7.647-2.552,13.074,8.709" transform="translate(-336.354 -162.338)" fill="none" stroke="#282828" stroke-linecap="round" stroke-linejoin="round" stroke-width="1.397"/>
                  </g>
                </g>
              </g>
              <path id="Path_3801" data-name="Path 3801" d="M438.089,166.916c.005,13.365-1.308,41.324-9.523,57.92-7.715,15.582-20.473,23.968-37.2,24.466s-29.186-5.947-39.173-26.17-9.51-55.968-9.51-55.968,0-47.741,47.185-47.741C439.565,119.424,438.089,166.916,438.089,166.916Z" transform="translate(-325.302 -95.813)" fill="#ffb1a5"/>
              <path id="Path_3802" data-name="Path 3802" d="M351.794,186.688s5.5,27.893,29.773,31.1c27.939,3.689,35.38-30.39,35.38-30.39s-12.346,15.47-31.87,15.494C363.3,202.917,351.794,186.688,351.794,186.688Z" transform="translate(-319.013 -49.401)" fill="#282828"/>
              <g id="Group_2442" data-name="Group 2442" transform="translate(17.96 59.932)">
                <path id="Path_3803" data-name="Path 3803" d="M368.917,159.254V170.3a3.613,3.613,0,0,0,.259,1.347,3.556,3.556,0,0,0,4.24,1.967l3.664-.975" transform="translate(-325.158 -128.262)" fill="none" stroke="#282828" stroke-linecap="round" stroke-linejoin="round" stroke-width="1.397"/>
                <path id="Path_3804" data-name="Path 3804" d="M364.18,157.886a4.3,4.3,0,1,1-4.3-4.3A4.3,4.3,0,0,1,364.18,157.886Z" transform="translate(-334.355 -132.17)" fill="#282828"/>
                <path id="Path_3805" data-name="Path 3805" d="M388.008,157.886a4.3,4.3,0,1,1-4.294-4.3A4.294,4.294,0,0,1,388.008,157.886Z" transform="translate(-317.913 -132.17)" fill="#282828"/>
                <path id="Path_3806" data-name="Path 3806" d="M375.454,145.263l28.88,7.46s-1.313-8.1-13.128-11.044S375.454,145.263,375.454,145.263Z" transform="translate(-320.648 -140.916)" fill="#282828"/>
                <path id="Path_3807" data-name="Path 3807" d="M376.626,145.263l-28.88,7.46s1.313-8.1,13.128-11.044S376.626,145.263,376.626,145.263Z" transform="translate(-339.766 -140.916)" fill="#282828"/>
                <path id="Path_3808" data-name="Path 3808" d="M361.436,172.379s4.26,3.265,15.465,3.265c10.189,0,16.552-3.265,16.552-3.265" transform="translate(-330.32 -119.206)" fill="none" stroke="#282828" stroke-linecap="round" stroke-linejoin="round" stroke-width="1.397"/>
                <g id="Group_2441" data-name="Group 2441" transform="translate(0 8.718)">
                  <circle id="Ellipse_24" data-name="Ellipse 24" cx="18.253" cy="18.253" r="18.253" transform="translate(6.12)" fill="none" stroke="#fff" stroke-miterlimit="10" stroke-width="1.951"/>
                  <circle id="Ellipse_25" data-name="Ellipse 25" cx="18.253" cy="18.253" r="18.253" transform="translate(50.96)" fill="none" stroke="#fff" stroke-miterlimit="10" stroke-width="1.951"/>
                  <path id="Path_3809" data-name="Path 3809" d="M368.246,157.607s4.323-4.036,8.335,0" transform="translate(-325.621 -139.354)" fill="none" stroke="#fff" stroke-miterlimit="10" stroke-width="1.951"/>
                  <line id="Line_27" data-name="Line 27" x1="6.12" y1="0.155" transform="translate(0 18.097)" fill="none" stroke="#fff" stroke-miterlimit="10" stroke-width="1.951"/>
                  <line id="Line_28" data-name="Line 28" y1="0.111" x2="6.832" transform="translate(87.465 18.142)" fill="none" stroke="#fff" stroke-miterlimit="10" stroke-width="1.951"/>
                </g>
              </g>
              <path id="Path_3810" data-name="Path 3810" d="M351.794,127.279s8.766,24.9,48.319,24.138c26.876-.519,33.3,18.93,33.3,18.93s-4.678-43.479-5.907-43.068-40.9-10.584-40.9-10.584Z" transform="translate(-319.013 -97.696)" fill="#282828"/>
            </g>
          </g>
        </g>
      </g>
    </g>
  </g>
</svg>
