<svg xmlns="http://www.w3.org/2000/svg" width="896.095" height="552.282" viewBox="0 0 896.095 552.282">
  <defs>
    <style>
      .cls-1 {
        fill: #e6f5ff;
      }

      .cls-2, .cls-24 {
        fill: #5c87c7;
      }

      .cls-3 {
        fill: #4674b8;
      }

      .cls-4 {
        fill: #e6973e;
      }

      .cls-5 {
        fill: #fff;
      }

      .cls-6 {
        fill: #275cab;
      }

      .cls-7 {
        fill: #366dbf;
      }

      .cls-8 {
        fill: #6a99de;
      }

      .cls-20, .cls-9 {
        fill: #0b3e8a;
      }

      .cls-10 {
        fill: #81c4ef;
      }

      .cls-11 {
        fill: #60b1e6;
      }

      .cls-12, .cls-19 {
        fill: #edbc9c;
      }

      .cls-13 {
        fill: #c9515b;
      }

      .cls-14 {
        fill: #983f46;
      }

      .cls-15, .cls-21 {
        fill: #dd9f80;
      }

      .cls-16 {
        fill: #164fa6;
      }

      .cls-17 {
        fill: #87a6d5;
      }

      .cls-18 {
        fill: #8fa5c4;
      }

      .cls-19, .cls-20, .cls-21 {
        fill-rule: evenodd;
      }

      .cls-22 {
        fill: #74b1d3;
      }

      .cls-23 {
        fill: #afddfd;
      }

      .cls-24 {
        opacity: 0.56;
      }
    </style>
  </defs>
  <g id="Group_2354" data-name="Group 2354" transform="translate(-306.032 -177.064)">
    <ellipse id="Ellipse_18" data-name="Ellipse 18" class="cls-1" cx="448.048" cy="28.012" rx="448.048" ry="28.012" transform="translate(306.032 673.321)"/>
    <g id="Group_2316" data-name="Group 2316" transform="translate(494.028 326.693)">
      <g id="Group_2299" data-name="Group 2299" transform="translate(203.787 62.772)">
        <rect id="Rectangle_126" data-name="Rectangle 126" class="cls-2" width="15.849" height="129.625" transform="translate(76.567 182.26)"/>
        <rect id="Rectangle_127" data-name="Rectangle 127" class="cls-3" width="6.226" height="129.625" transform="translate(86.19 182.26)"/>
        <path id="Path_3617" data-name="Path 3617" class="cls-2" d="M579.022,393.412H492.387a5.3,5.3,0,0,0-5.307,5.307h0a5.307,5.307,0,0,0,5.307,5.309h86.635a5.308,5.308,0,0,0,5.307-5.309h0A5.306,5.306,0,0,0,579.022,393.412Z" transform="translate(-449.004 -92.141)"/>
        <path id="Path_3618" data-name="Path 3618" class="cls-3" d="M578.574,393.412H491.938a5.285,5.285,0,0,0-4.532,2.581h75.03a5.279,5.279,0,0,1,4.532,8.035h11.605a5.308,5.308,0,0,0,0-10.615Z" transform="translate(-448.556 -92.141)"/>
        <rect id="Rectangle_128" data-name="Rectangle 128" class="cls-3" width="15.849" height="11.542" transform="translate(76.567 182.26)"/>
        <path id="Path_3619" data-name="Path 3619" class="cls-4" d="M645.57,268.059a18.038,18.038,0,0,0-7.336-1.536H549.008a18.166,18.166,0,0,0-17.843,14.756L503.2,427.452a18.226,18.226,0,0,0,0,6.874c.009.05.024.1.036.147h-24.8a7.391,7.391,0,0,0,0,14.782h80.177v-.223h51.676a18.168,18.168,0,0,0,17.845-14.756L656.078,288.1A18.19,18.19,0,0,0,645.57,268.059Z" transform="translate(-471.043 -266.523)"/>
        <path id="Path_3620" data-name="Path 3620" class="cls-3" d="M656.071,287.211,628.135,433.386a18.158,18.158,0,0,1-17.841,14.747H558.606v.233H478.439a7.392,7.392,0,1,1,0-14.785h24.8a.471.471,0,0,1-.038-.157c.214.021.465.021.681.021H593.1a24.993,24.993,0,0,0,24.55-20.291l27.917-145.981A18.185,18.185,0,0,1,656.071,287.211Z" transform="translate(-471.04 -265.628)"/>
        <path id="Path_3621" data-name="Path 3621" class="cls-5" d="M617.817,328.289l-.176.876a24.993,24.993,0,0,1-24.55,20.291H503.877c-.216,0-.468,0-.681-.021a.471.471,0,0,0,.038.157h-24.8a7.377,7.377,0,0,0-7.3,6.263v-19.98c0-.038-.019-.095-.019-.154a6.684,6.684,0,0,1,6.75-7.432Z" transform="translate(-471.034 -181.639)"/>
        <path id="Path_3622" data-name="Path 3622" class="cls-2" d="M627.144,268.059,599.232,414.042c-2.251,11.772-10.748,20.3-24.548,20.3H485.459c-.221,0-.461,0-.681-.017a18.226,18.226,0,0,1,0-6.874l27.962-146.173a18.166,18.166,0,0,1,17.843-14.756h89.226A18.038,18.038,0,0,1,627.144,268.059Z" transform="translate(-452.618 -266.523)"/>
      </g>
      <g id="Group_2303" data-name="Group 2303" transform="translate(9.182 29.264)">
        <path id="Path_3623" data-name="Path 3623" class="cls-6" d="M546.765,252.41H394.874a5.8,5.8,0,0,0-5.734,6.629l13.006,89.3a5.792,5.792,0,0,0,5.734,4.96h151.89a5.8,5.8,0,0,0,5.734-6.629L552.5,257.368A5.794,5.794,0,0,0,546.765,252.41Z" transform="translate(-389.079 -252.41)"/>
        <path id="Path_3624" data-name="Path 3624" class="cls-7" d="M525.517,252.41H394.874a5.8,5.8,0,0,0-5.734,6.629l5.748,39.473a116.6,116.6,0,0,0,46.728,9.606C485.173,308.118,510.839,284.978,525.517,252.41Z" transform="translate(-389.079 -252.41)"/>
        <g id="Group_2300" data-name="Group 2300" transform="translate(55.942 68.161)">
          <path id="Path_3625" data-name="Path 3625" class="cls-7" d="M445.478,281.119h-28.76a4.07,4.07,0,0,0-4.034,4.658l8.714,59.808a4.565,4.565,0,0,0,.036.568l.392,2.358a4.067,4.067,0,0,0,4.022,3.478h28.387Z" transform="translate(-412.641 -281.117)"/>
          <path id="Path_3626" data-name="Path 3626" class="cls-6" d="M472.205,347.809a4.123,4.123,0,0,0-4.122-4.058H446.326a6.414,6.414,0,0,1-6.356-5.544l-6.377-46.591h3.78a4.072,4.072,0,0,0,4.029-4.656l-.387-2.36a4.069,4.069,0,0,0-4.029-3.483H429.44a5.691,5.691,0,0,0-5.639,6.446l7.956,59.269a5.947,5.947,0,0,0,5.9,5.157l30.431,0a4.122,4.122,0,0,0,4.122-4.186Z" transform="translate(-397.374 -281.118)"/>
        </g>
        <g id="Group_2301" data-name="Group 2301" transform="translate(109.692 85.275)">
          <path id="Path_3627" data-name="Path 3627" class="cls-5" d="M440.726,291.049A2.723,2.723,0,1,1,438,288.326,2.725,2.725,0,0,1,440.726,291.049Z" transform="translate(-435.279 -288.326)"/>
          <path id="Path_3628" data-name="Path 3628" class="cls-5" d="M446.617,291.049a2.723,2.723,0,1,1-2.723-2.723A2.725,2.725,0,0,1,446.617,291.049Z" transform="translate(-427.183 -288.326)"/>
          <circle id="Ellipse_19" data-name="Ellipse 19" class="cls-5" cx="2.723" cy="2.723" r="2.723" transform="translate(26.24 0)"/>
        </g>
        <path id="Path_3629" data-name="Path 3629" class="cls-7" d="M457.221,293.829l7.937,54.514a5.794,5.794,0,0,0,5.734,4.96h2.282a5.8,5.8,0,0,0,5.734-6.629L465.9,257.368a5.794,5.794,0,0,0-5.734-4.958h-2.279a5.793,5.793,0,0,0-5.734,6.629l5.067,34.79" transform="translate(-302.481 -252.41)"/>
        <g id="Group_2302" data-name="Group 2302" transform="translate(42.123 9.749)">
          <path id="Path_3630" data-name="Path 3630" class="cls-8" d="M461.969,256.516H408.928a2.105,2.105,0,0,0-2.08,2.441l.356,2.2a2.1,2.1,0,0,0,2.078,1.769h53.044a2.1,2.1,0,0,0,2.078-2.441l-.356-2.2A2.106,2.106,0,0,0,461.969,256.516Z" transform="translate(-406.82 -256.516)"/>
        </g>
      </g>
      <g id="Group_2312" data-name="Group 2312" transform="translate(174.167)">
        <path id="Path_3631" data-name="Path 3631" class="cls-9" d="M573.144,306.3c-1.683-12.928-20.618-6.881-13.51-18.928,6.574-11.143-1.078-16.071-10.119-17.81-11.532-2.218-4.986-6.757-10.6-17.517-7.13-13.669-18.128-9.609-18.128-9.609s-13.785-7.5-27.831,4.354c-14.8,12.489-11.572,23.534-3.649,38.7,4,7.667-.912,14.495-4.414,28.591-4.2,16.907,16.672,50.945,61.344,27.955C563.514,333.146,574.037,313.157,573.144,306.3Z" transform="translate(-425.522 -240.069)"/>
        <path id="Path_3632" data-name="Path 3632" class="cls-10" d="M522.8,340.625c12.408-17.494,23.486-35.83,23.486-35.83l-6.513-31.414s-6.819.729-13.759,7.669c-4.666,4.665-27.506,50.126-27.506,50.126L477.43,266.621,462,267.808s17.377,103.823,30.9,104.015c6.107.088,18.56-15.2,29.9-31.2" transform="translate(-453.855 -203.616)"/>
        <path id="Path_3633" data-name="Path 3633" class="cls-10" d="M551.541,302.147l13.514,50.591-79.9,6.532.366,14.429s92.115.411,109.464.228c11.558-.123-10.2-91.626-24.08-102.1-10.976-8.282-41.322-6.073-41.322-6.073l-21.627,9.179s-25.084,24.837-10.107,48.217c11.8,18.415-3.239,54.191-3.239,54.191l51.071,3.039,45.615.432Z" transform="translate(-422.034 -205.171)"/>
        <path id="Path_3634" data-name="Path 3634" class="cls-11" d="M495.964,352.517l2.861-.522c2.74-11.962,3.229-28.306-3.013-36.163-12.37-15.566.366-38.171,7.517-46.346h-.01c-1.147,1.156-24.674,25.355-10.062,48.177C500.236,328.563,498.529,342.754,495.964,352.517Z" transform="translate(-417.446 -199.679)"/>
        <path id="Path_3635" data-name="Path 3635" class="cls-12" d="M498.053,306.391c-8.45.309-17.489,3.331-21.72,8.3a1.706,1.706,0,0,0,1.311,2.8h20.54Z" transform="translate(-434.709 -148.961)"/>
        <g id="Group_2306" data-name="Group 2306" transform="translate(69.679)">
          <path id="Path_3636" data-name="Path 3636" class="cls-12" d="M525.792,270.866v17.062L510.5,305.436l-.1-.195-4.162-8.908V286.76a19.41,19.41,0,0,1-16.167-15.115l-2.161-11.807a37.061,37.061,0,0,0,20.466-10.428,43.636,43.636,0,0,0,6.634,8.87c2.84,2.821,6.769,3.521,8.267,5.057A9.4,9.4,0,0,1,525.792,270.866Z" transform="translate(-487.915 -227.269)"/>
          <path id="Path_3637" data-name="Path 3637" class="cls-13" d="M513.659,268.9a47.3,47.3,0,0,0-3.288-13.327c-3.127-7.071-7.531-15.352-16.667-15.376,0,0,22.185-3.447,25.9,27.437Z" transform="translate(-479.961 -240.085)"/>
          <g id="Group_2304" data-name="Group 2304" transform="translate(26.996 24.157)">
            <path id="Path_3638" data-name="Path 3638" class="cls-13" d="M519.262,260c-.641-5.94-5.618-10.276-11.114-9.682s-9.435,5.891-8.794,11.831,5.618,10.276,11.116,9.682S519.9,265.936,519.262,260Z" transform="translate(-499.285 -250.259)"/>
            <path id="Path_3639" data-name="Path 3639" class="cls-14" d="M512.341,270.772c-5.292.572-10.084-3.6-10.7-9.321-.572-5.3,2.645-10.062,7.332-11.188-.273.007-.548.014-.824.045-5.5.594-9.435,5.891-8.794,11.831s5.618,10.276,11.116,9.682a9.388,9.388,0,0,0,4.547-1.771A8.991,8.991,0,0,1,512.341,270.772Z" transform="translate(-499.285 -250.254)"/>
            <path id="Path_3640" data-name="Path 3640" class="cls-14" d="M511.684,257.207a4.867,4.867,0,1,0-4.262,5.734A5.058,5.058,0,0,0,511.684,257.207Z" transform="translate(-495.551 -247.195)"/>
          </g>
          <path id="Path_3641" data-name="Path 3641" class="cls-15" d="M510.089,262.093a61.563,61.563,0,0,1-7.161,7.821,5.071,5.071,0,0,0-1.788,3.929L499.8,287.811l-4.162-8.908V269.37l.1-.1S505.359,267.813,510.089,262.093Z" transform="translate(-477.307 -209.839)"/>
          <g id="Group_2305" data-name="Group 2305" transform="translate(21.596 42.021)">
            <path id="Path_3642" data-name="Path 3642" class="cls-13" d="M499.077,267.285l-.166-.971c5.577-.954,9.656-8.457,9.7-8.531l.869.465C509.3,258.574,505.125,266.252,499.077,267.285Z" transform="translate(-494.399 -257.783)"/>
            <path id="Path_3643" data-name="Path 3643" class="cls-13" d="M502.729,262.252c-.131-.917-1.517-1.417-3.094-1.123s-2.747,1.275-2.614,2.191,1.517,1.417,3.094,1.121S502.862,263.166,502.729,262.252Z" transform="translate(-497.011 -253.301)"/>
          </g>
        </g>
        <path id="Path_3644" data-name="Path 3644" class="cls-12" d="M479.158,281.87s2.177-17.864.216-18.517-3.92,6.971-3.92,6.971-8.279-16.121-13.944-14.379,4.751,26.533,4.751,26.533Z" transform="translate(-456.841 -218.468)"/>
        <path id="Path_3645" data-name="Path 3645" class="cls-11" d="M491.625,335.722l62.923-5.264a3.627,3.627,0,0,0,3.262-4.317c-2.324-11.762-9.041-45.487-9.445-44.482-.487,1.218,6.332,39.7-1.7,43.592C541.167,327.916,491.625,335.722,491.625,335.722Z" transform="translate(-413.137 -182.979)"/>
        <g id="Group_2308" data-name="Group 2308" transform="translate(0 172.092)">
          <g id="Group_2307" data-name="Group 2307" transform="translate(87.919 154.939)">
            <path id="Path_3646" data-name="Path 3646" class="cls-12" d="M521.13,389.664a2.077,2.077,0,0,0-1.2.814c-4,5.572-7.555,6.888-14.58,7.833a4.18,4.18,0,0,0-1.318.442c.539-.81,2.88-4.644,1.266-8.1a39.352,39.352,0,0,0-4.005-6.724l10.264-6.109S517.849,385.084,521.13,389.664Z" transform="translate(-487.769 -377.823)"/>
            <path id="Path_3647" data-name="Path 3647" class="cls-9" d="M536.556,395.893c-1.814,1.738-31.1,17.745-38.057,21.763-.85.489-2.571,1.387-2.887.458-.494-1.451,12.171-25.889,17.567-26.62,7.021-.95,10.577-2.263,14.576-7.837a2.042,2.042,0,0,1,3.369.038C533.935,387.946,538.016,394.5,536.556,395.893Z" transform="translate(-495.597 -371.001)"/>
          </g>
          <path id="Path_3648" data-name="Path 3648" class="cls-16" d="M531.54,312.566s-71.067,32.943-72.952,55.791c-1.676,20.319,103.063,113.277,103.063,113.277l16.561-6.819-57.322-92.4s60.725-29.93,75.564-65.97Z" transform="translate(-458.568 -312.566)"/>
          <path id="Path_3649" data-name="Path 3649" class="cls-9" d="M476.5,358.212c-4.825,9.276-8.362,22.23-10.834,33.971,8.047,9.552,18.194,20.307,28.684,30.882-7.747-30.612-14.623-61.313-12.249-65.708,4.532-8.386,34.648-30.681,55.931-41.768C538.029,315.589,487.682,336.7,476.5,358.212Z" transform="translate(-448.817 -308.412)"/>
        </g>
        <g id="Group_2311" data-name="Group 2311" transform="translate(32.799 173.687)">
          <g id="Group_2309" data-name="Group 2309" transform="translate(0.256 169.253)">
            <path id="Path_3650" data-name="Path 3650" class="cls-12" d="M503.218,399.534a2.051,2.051,0,0,0-1.444.123c-6.216,2.906-9.958,2.32-16.549-.287a4.133,4.133,0,0,0-1.365-.259c.864-.444,4.782-2.647,5.06-6.449a39.283,39.283,0,0,0-.211-7.821l11.94-.318S502.593,393.933,503.218,399.534Z" transform="translate(-456.864 -384.524)"/>
            <path id="Path_3651" data-name="Path 3651" class="cls-9" d="M519.1,407.01c-2.434.629-37,.247-45.033.351a1.552,1.552,0,0,1-1.55-1.833c.278-1.508,23.266-16.644,28.332-14.645,6.591,2.6,10.333,3.191,16.546.28a2.044,2.044,0,0,1,2.923,1.679C520.693,397.926,521.054,406.5,519.1,407.01Z" transform="translate(-472.49 -376.033)"/>
          </g>
          <g id="Group_2310" data-name="Group 2310">
            <path id="Path_3652" data-name="Path 3652" class="cls-16" d="M608.592,315.04s5.952,40.246-30.12,50.432c-28.439,8.032-58.93,12.13-58.93,12.13l2.182,114.227H502.754s-34.819-122.143-29.895-131.239c5.594-10.326,49.905-41.695,68.833-47.353Z" transform="translate(-472.382 -313.238)"/>
            <path id="Path_3653" data-name="Path 3653" class="cls-9" d="M500.77,376.907s30.493-4.1,58.932-12.128c36.073-10.188,30.12-50.435,30.12-50.435l-22.335-.6c-6.71,14.429-28.532,50.152-81.448,54.005l11.981,123.385h4.934Z" transform="translate(-453.612 -312.543)"/>
          </g>
        </g>
      </g>
      <g id="Group_2315" data-name="Group 2315" transform="translate(0 168.428)">
        <g id="Group_2313" data-name="Group 2313" transform="translate(11.417 5.423)">
          <path id="Path_3654" data-name="Path 3654" class="cls-17" d="M397.963,512.82l-7.943-.061L423.042,314.3l7.991-.061Z" transform="translate(-390.021 -312.03)"/>
          <path id="Path_3655" data-name="Path 3655" class="cls-17" d="M554.8,514.032l8.437.065L522.3,313.307l-8.384.064Z" transform="translate(-219.754 -313.307)"/>
        </g>
        <g id="Group_2314" data-name="Group 2314" transform="translate(42.275 5.423)">
          <path id="Path_3656" data-name="Path 3656" class="cls-3" d="M410.995,325.238l2.177-11-7.991.061-2.164,10.941Z" transform="translate(-403.017 -312.03)"/>
          <path id="Path_3657" data-name="Path 3657" class="cls-3" d="M524.985,326.515,522.3,313.307l-8.384.064,2.671,13.144Z" transform="translate(-250.612 -313.307)"/>
        </g>
        <path id="Path_3658" data-name="Path 3658" class="cls-18" d="M747.345,311.023h-358.1a4.033,4.033,0,0,0-4.034,4.034h0a4.035,4.035,0,0,0,4.034,4.034h358.1a4.035,4.035,0,0,0,4.034-4.034h0A4.034,4.034,0,0,0,747.345,311.023Z" transform="translate(-385.212 -311.023)"/>
      </g>
    </g>
    <g id="Group_2331" data-name="Group 2331" transform="translate(506.966 177.064)">
      <g id="Group_2321" data-name="Group 2321" transform="translate(100.237 83.083)">
        <path id="Path_3659" data-name="Path 3659" class="cls-2" d="M540.344,271.1l-9.435-54.639a5.147,5.147,0,0,0-5.093-4.4l-87.789.959a5.147,5.147,0,0,0-5.093,5.888l8.279,47.944,4.188,27.143a1.591,1.591,0,0,0,2.9.639l11.173-16.812,75.78-.829A5.146,5.146,0,0,0,540.344,271.1Z" transform="translate(-432.879 -212.057)"/>
        <g id="Group_2320" data-name="Group 2320" transform="translate(23.947 16.952)">
          <g id="Group_2317" data-name="Group 2317">
            <path id="Path_3660" data-name="Path 3660" class="cls-5" d="M495.266,219.2H444.387a1.421,1.421,0,0,0-1.4,1.65l.24,1.484a1.423,1.423,0,0,0,1.406,1.194h50.876a1.423,1.423,0,0,0,1.4-1.65l-.24-1.484A1.421,1.421,0,0,0,495.266,219.2Z" transform="translate(-442.965 -219.197)"/>
          </g>
          <g id="Group_2318" data-name="Group 2318" transform="translate(1.709 13.505)">
            <path id="Path_3661" data-name="Path 3661" class="cls-5" d="M495.986,224.885H445.107a1.423,1.423,0,0,0-1.4,1.65l.24,1.484a1.423,1.423,0,0,0,1.406,1.194h50.876a1.422,1.422,0,0,0,1.4-1.65l-.24-1.484A1.421,1.421,0,0,0,495.986,224.885Z" transform="translate(-443.685 -224.885)"/>
          </g>
          <g id="Group_2319" data-name="Group 2319" transform="translate(16.924 28.166)">
            <path id="Path_3662" data-name="Path 3662" class="cls-5" d="M475.061,231.06l-23.546.04a1.423,1.423,0,0,0-1.4,1.65l.24,1.484a1.423,1.423,0,0,0,1.406,1.194l23.543-.04a1.423,1.423,0,0,0,1.4-1.65l-.24-1.484A1.423,1.423,0,0,0,475.061,231.06Z" transform="translate(-450.093 -231.06)"/>
          </g>
        </g>
      </g>
      <g id="Group_2326" data-name="Group 2326" transform="translate(466.36)">
        <path id="Path_3663" data-name="Path 3663" class="cls-13" d="M685.047,232.6l11.679-51.4c.605-2.379-.729-4.143-3.132-4.143l-82.939.9a7.948,7.948,0,0,0-7.006,5.537L593.4,228.6l-6.273,25.533c-.332,1.349,1.273,1.738,2.483.6l16.836-15.815,71.594-.779A7.951,7.951,0,0,0,685.047,232.6Z" transform="translate(-587.082 -177.064)"/>
        <g id="Group_2325" data-name="Group 2325" transform="translate(32.122 16.691)">
          <g id="Group_2322" data-name="Group 2322" transform="translate(3.304)">
            <path id="Path_3664" data-name="Path 3664" class="cls-5" d="M649.731,184.094H604.2a2.087,2.087,0,0,0-1.847,1.474l-.316,1.327a.8.8,0,0,0,.829,1.071H648.4a2.083,2.083,0,0,0,1.845-1.477l.316-1.327A.8.8,0,0,0,649.731,184.094Z" transform="translate(-602.003 -184.094)"/>
          </g>
          <g id="Group_2323" data-name="Group 2323" transform="translate(0 12.085)">
            <path id="Path_3665" data-name="Path 3665" class="cls-5" d="M648.341,189.184H602.807a2.084,2.084,0,0,0-1.845,1.477l-.318,1.327a.8.8,0,0,0,.829,1.068h45.534a2.081,2.081,0,0,0,1.845-1.474l.318-1.33A.8.8,0,0,0,648.341,189.184Z" transform="translate(-600.611 -189.184)"/>
          </g>
          <g id="Group_2324" data-name="Group 2324" transform="translate(8.354 25.205)">
            <path id="Path_3666" data-name="Path 3666" class="cls-5" d="M627.41,194.71l-21.084.038a2.087,2.087,0,0,0-1.847,1.474l-.316,1.33a.8.8,0,0,0,.829,1.068l21.084-.038a2.082,2.082,0,0,0,1.847-1.474l.316-1.33A.8.8,0,0,0,627.41,194.71Z" transform="translate(-604.13 -194.71)"/>
          </g>
        </g>
      </g>
      <g id="Group_2330" data-name="Group 2330" transform="translate(0 71.608)">
        <path id="Path_3667" data-name="Path 3667" class="cls-13" d="M482.524,277.346a1.589,1.589,0,0,0,2.583-1.493l-11.256-64.892a4.364,4.364,0,0,0-4.321-3.737l-74.5.814a4.365,4.365,0,0,0-4.321,5l8.006,46.37a4.37,4.37,0,0,0,4.321,3.74l57.368-.629a11.526,11.526,0,0,1,7.484,2.659Z" transform="translate(-390.661 -207.224)"/>
        <g id="Group_2329" data-name="Group 2329" transform="translate(16.366 19.476)">
          <g id="Group_2327" data-name="Group 2327">
            <path id="Path_3668" data-name="Path 3668" class="cls-5" d="M449.855,215.427H398.976a1.421,1.421,0,0,0-1.4,1.65l.24,1.484a1.421,1.421,0,0,0,1.4,1.194h50.879a1.422,1.422,0,0,0,1.4-1.65l-.24-1.484A1.423,1.423,0,0,0,449.855,215.427Z" transform="translate(-397.554 -215.427)"/>
          </g>
          <g id="Group_2328" data-name="Group 2328" transform="translate(1.709 13.505)">
            <path id="Path_3669" data-name="Path 3669" class="cls-5" d="M450.575,221.115H399.7a1.421,1.421,0,0,0-1.4,1.65l.24,1.484a1.423,1.423,0,0,0,1.4,1.194h50.879a1.422,1.422,0,0,0,1.4-1.65l-.24-1.484A1.423,1.423,0,0,0,450.575,221.115Z" transform="translate(-398.274 -221.115)"/>
          </g>
        </g>
      </g>
    </g>
    <g id="Group_2346" data-name="Group 2346" transform="translate(837.595 195.602)">
      <g id="Group_2344" data-name="Group 2344">
        <g id="Group_2334" data-name="Group 2334" transform="translate(0 78.287)">
          <path id="Path_3670" data-name="Path 3670" class="cls-16" d="M669.654,282.409l-.276,10.214-6.13,237.189H638.74L617.032,326.58a.078.078,0,0,0-.021.057l-27.594,68.522,18.831,134.648-9.056.078-14.979.138S539.4,395.651,540.3,386.944c.921-8.685,34.555-103.654,34.555-103.654Z" transform="translate(-515.655 -129.115)"/>
          <path id="Path_3671" data-name="Path 3671" class="cls-13" d="M651.125,224.33,605.087,218l-1.079-.157-22.017.1-.2.039L555.5,224.561V372.437h95.623Z" transform="translate(-494.751 -217.845)"/>
          <path id="Path_3672" data-name="Path 3672" class="cls-12" d="M628.958,246.668s3.348-20.906,5.777-21.005,2.165,9.155,2.165,9.155,14.6-15.533,20.44-11.719-14,28.451-14,28.451Z" transform="translate(-393.802 -211.452)"/>
          <path id="Path_3673" data-name="Path 3673" class="cls-10" d="M617.2,217.979l2.49,163.294H585.259l-2.434-44.694-45.681-.743a7,7,0,0,1-6.952-8.93l22.755-79.125a26.9,26.9,0,0,1,19.35-18.7L616.961,217.9Z" transform="translate(-529.915 -217.765)"/>
          <path id="Path_3674" data-name="Path 3674" class="cls-10" d="M717.158,258.516,672.865,349.5a7.555,7.555,0,0,1-13.078.254l-34.662-57.444-1.726,88.95H586.622L576.329,217.949l.135-.038,46.778,6.43a27.117,27.117,0,0,1,20.331,14.979l23.665,48.8a1.852,1.852,0,0,0,3.077.373l30.1-35.956Z" transform="translate(-466.129 -217.754)"/>
          <path id="Path_3675" data-name="Path 3675" class="cls-10" d="M552.109,281.75h44.884l.434-22.984-44.884-.651Z" transform="translate(-499.415 -162.501)"/>
          <path id="Path_3676" data-name="Path 3676" class="cls-12" d="M571.246,275.026c12.66-.463,26.2-4.991,32.537-12.437a2.557,2.557,0,0,0-1.961-4.2H571.049Z" transform="translate(-473.385 -162.125)"/>
          <path id="Path_3677" data-name="Path 3677" class="cls-11" d="M579.629,269.009l.042-.737-27.461-.2,2.409,44.257,8.193-36.67Z" transform="translate(-499.275 -148.82)"/>
          <path id="Path_3678" data-name="Path 3678" class="cls-9" d="M608.732,286.711,602.6,523.9h-1.725L584.421,286.711Z" transform="translate(-455.009 -123.203)"/>
          <path id="Path_3679" data-name="Path 3679" class="cls-11" d="M606.191,277.52s-60.888,4.409-60.5,3.253l10.57-36.422.157.548,1.038,25.41C557.6,273.759,603.014,276.618,606.191,277.52Z" transform="translate(-508.233 -181.417)"/>
          <path id="Path_3680" data-name="Path 3680" class="cls-11" d="M644.621,326.038l44.292-90.985-.207-.069c-4.7-.021-45.912,86.144-50.247,88.312-4.939,2.469-41.579-54.447-41.579-54.447l34.662,57.444A7.555,7.555,0,0,0,644.621,326.038Z" transform="translate(-437.885 -194.29)"/>
          <g id="Group_2332" data-name="Group 2332" transform="translate(40.373 400.481)">
            <path id="Path_3681" data-name="Path 3681" class="cls-9" d="M577.886,386.69c-5.285,10.824-30.4,16.295-30.4,16.295s-1.812,3.193,1.057,7.234,29.3,1.565,32.611.829a11.526,11.526,0,0,0,5.594-3.421,18.532,18.532,0,0,0,3.466,3.013c1.242.6,7.992-.755,7.992-.755,1.588-4.3,0-20.744-.451-23.365Z" transform="translate(-546.919 -386.519)"/>
          </g>
          <g id="Group_2333" data-name="Group 2333" transform="translate(124.286 400.481)">
            <path id="Path_3682" data-name="Path 3682" class="cls-9" d="M603.27,386.69c5.285,10.824,30.4,16.295,30.4,16.295s1.812,3.193-1.057,7.234-29.3,1.565-32.611.829a11.524,11.524,0,0,1-5.594-3.421,18.53,18.53,0,0,1-3.467,3.013c-1.242.6-7.992-.755-7.992-.755-1.588-4.3,0-20.744.451-23.365Z" transform="translate(-582.262 -386.519)"/>
          </g>
          <path id="Path_3683" data-name="Path 3683" class="cls-9" d="M569.459,369.559l18.831,134.648-9.056.078c-5.589-28.995-25.127-125.944-24.4-132.02.843-7.256,40.985-69.17,42.219-71.229Z" transform="translate(-495.697 -103.515)"/>
        </g>
        <g id="Group_2343" data-name="Group 2343" transform="translate(69.398)">
          <g id="Group_2336" data-name="Group 2336" transform="translate(1.919)">
            <path id="Path_3684" data-name="Path 3684" class="cls-19" d="M589.674,229.24c-3.336,2.664-11.4,8.343-11.4,8.343s-8.206-5.622-11.6-8.322l-.026-19.491h23.028Z" transform="translate(-550.753 -150.654)"/>
            <path id="Path_3685" data-name="Path 3685" class="cls-19" d="M589.678,209.772v8.151a18.154,18.154,0,0,1-23.028.095v-8.246Z" transform="translate(-550.748 -150.652)"/>
            <path id="Path_3686" data-name="Path 3686" class="cls-20" d="M561.8,231.394h51.743l.8-14.4c11.439-4.841,2.861-32.117,2.861-32.117.66,6.6-17.159,6.819-24.2,5.72a19.163,19.163,0,0,0-11.879,1.759s-22.437-4.839-21.117,26.618A57.823,57.823,0,0,0,561.8,231.394Z" transform="translate(-559.952 -184.872)"/>
            <g id="Group_2335" data-name="Group 2335" transform="translate(0.098 21.361)">
              <path id="Path_3687" data-name="Path 3687" class="cls-19" d="M604.246,204.6v12.983a20.147,20.147,0,0,1-6.318,14.666c-.658.584-1.318,1.218-2,1.852a18.145,18.145,0,0,1-24.866,0l-1.978-1.852a20.024,20.024,0,0,1-6.344-14.623v-9.908s6-4.017,14.243-13.849C576.979,193.869,586.1,202.621,604.246,204.6Z" transform="translate(-556.225 -193.869)"/>
              <path id="Path_3688" data-name="Path 3688" class="cls-21" d="M589.678,211.132v4.922a18.154,18.154,0,0,1-23.028.095v-4.941A18.129,18.129,0,0,0,589.678,211.132Z" transform="translate(-550.846 -170.145)"/>
              <path id="Path_3689" data-name="Path 3689" class="cls-19" d="M571.659,211.13c4.02-6.437-2.761-13.218-9.2-9.2a3.99,3.99,0,0,0-1.254,1.251c-4.031,6.441,2.761,13.234,9.2,9.2A3.966,3.966,0,0,0,571.659,211.13Z" transform="translate(-559.994 -184.448)"/>
              <path id="Path_3690" data-name="Path 3690" class="cls-19" d="M589.068,211.133c3.927-6.287-2.446-12.9-8.742-9.469a4.981,4.981,0,0,0-1.98,1.98c-3.436,6.3,3.182,12.672,9.469,8.742A3.976,3.976,0,0,0,589.068,211.133Z" transform="translate(-536.066 -184.448)"/>
            </g>
          </g>
          <g id="Group_2342" data-name="Group 2342" transform="translate(0 5.138)">
            <path id="Path_3691" data-name="Path 3691" class="cls-14" d="M611.7,216.237h-1.968v-6.812c0-11.311-10.316-20.516-23-20.516h-.969c-12.684,0-23,9.205-23,20.516v6.812h-1.966v-6.812c0-12.344,11.2-22.39,24.97-22.39h.969c13.769,0,24.97,10.046,24.97,22.39Z" transform="translate(-556.879 -187.036)"/>
            <g id="Group_2341" data-name="Group 2341" transform="translate(0 25.571)">
              <g id="Group_2339" data-name="Group 2339">
                <g id="Group_2337" data-name="Group 2337" transform="translate(47.635)">
                  <path id="Path_3692" data-name="Path 3692" class="cls-13" d="M584.756,197.806h0a5.566,5.566,0,0,0-5.549,5.549v9.889a5.566,5.566,0,0,0,5.549,5.549h0a5.566,5.566,0,0,0,5.549-5.549v-9.889A5.566,5.566,0,0,0,584.756,197.806Z" transform="translate(-579.207 -197.806)"/>
                  <path id="Path_3693" data-name="Path 3693" class="cls-14" d="M582.506,197.806a5.437,5.437,0,0,0-1.662.285,5.55,5.55,0,0,1,3.884,5.264v9.889a5.55,5.55,0,0,1-3.884,5.264,5.437,5.437,0,0,0,1.662.285,5.566,5.566,0,0,0,5.549-5.549v-9.889A5.566,5.566,0,0,0,582.506,197.806Z" transform="translate(-576.957 -197.806)"/>
                </g>
                <g id="Group_2338" data-name="Group 2338">
                  <path id="Path_3694" data-name="Path 3694" class="cls-13" d="M564.693,197.806h0a5.566,5.566,0,0,0-5.549,5.549v9.889a5.566,5.566,0,0,0,5.549,5.549h0a5.564,5.564,0,0,0,5.546-5.549v-9.889A5.564,5.564,0,0,0,564.693,197.806Z" transform="translate(-559.144 -197.806)"/>
                  <path id="Path_3695" data-name="Path 3695" class="cls-14" d="M562.444,197.806a5.451,5.451,0,0,0-1.664.285,5.55,5.55,0,0,1,3.884,5.264v9.889a5.55,5.55,0,0,1-3.884,5.264,5.451,5.451,0,0,0,1.664.285,5.564,5.564,0,0,0,5.546-5.549v-9.889A5.564,5.564,0,0,0,562.444,197.806Z" transform="translate(-556.896 -197.806)"/>
                </g>
              </g>
              <g id="Group_2340" data-name="Group 2340" transform="translate(32.938 17.729)">
                <path id="Path_3696" data-name="Path 3696" class="cls-13" d="M575.274,214.725l-.071-1.1c6.327-.4,11.76-8.272,11.814-8.35l.914.622C587.7,206.237,582.134,214.293,575.274,214.725Z" transform="translate(-570.012 -205.273)"/>
                <path id="Path_3697" data-name="Path 3697" class="cls-13" d="M579.5,209.993c-.038-1.035-1.522-1.757-3.312-1.617s-3.21,1.095-3.172,2.13,1.522,1.759,3.312,1.617S579.539,211.028,579.5,209.993Z" transform="translate(-573.017 -201.032)"/>
              </g>
            </g>
          </g>
        </g>
      </g>
      <g id="Group_2345" data-name="Group 2345" transform="translate(47.105 107.078)">
        <path id="Path_3698" data-name="Path 3698" class="cls-6" d="M637.744,229.971H557.372a7.812,7.812,0,0,0-7.61,8.374l2.108,51.731a7.917,7.917,0,0,0,7.8,7.545h75.771a7.921,7.921,0,0,0,7.8-7.545l2.106-51.731A7.812,7.812,0,0,0,637.744,229.971Z" transform="translate(-549.755 -229.971)"/>
        <path id="Path_3699" data-name="Path 3699" class="cls-7" d="M636.543,229.971H556.171a7.408,7.408,0,0,0-5.542,2.5,7.293,7.293,0,0,1,2.073-.332h80.372a7.812,7.812,0,0,1,7.609,8.374l-2.108,51.731a7.826,7.826,0,0,1-2.142,5.015,7.929,7.929,0,0,0,5.613-7.182l2.106-51.731A7.812,7.812,0,0,0,636.543,229.971Z" transform="translate(-548.554 -229.971)"/>
        <path id="Path_3700" data-name="Path 3700" class="cls-5" d="M584.021,250.054a9.107,9.107,0,1,0-9.108,9.108A9.108,9.108,0,0,0,584.021,250.054Z" transform="translate(-527.693 -214.888)"/>
      </g>
    </g>
    <g id="Group_2353" data-name="Group 2353" transform="translate(378.714 490.93)">
      <g id="Group_2352" data-name="Group 2352">
        <g id="Group_2347" data-name="Group 2347" transform="translate(30.608)">
          <path id="Path_3701" data-name="Path 3701" class="cls-2" d="M385.638,465.664s-5.306-4.955-1.745-23.759,12.6-36.861,8.165-57.258-39.192-71.834-39.309-75.255S342.025,369.228,360,394.148s20.139,33.561,19.341,46.667.185,23.657,2.156,26.7Z" transform="translate(-349.535 -309.258)"/>
          <path id="Path_3702" data-name="Path 3702" class="cls-8" d="M380.489,427.77c-2.092,8.388-3.352,29.42-.012,34.453.311.47.76.2,1.318-.665-1.019-3.478-1.686-9.571.237-19.73,3.561-18.8,12.6-36.861,8.165-57.258s-39.192-71.834-39.309-75.255c0,0,5.238,42.854,22.879,72.349C386.4,402.783,382.579,419.381,380.489,427.77Z" transform="translate(-347.675 -309.181)"/>
        </g>
        <g id="Group_2348" data-name="Group 2348" transform="translate(70.058 45.883)">
          <path id="Path_3703" data-name="Path 3703" class="cls-2" d="M369.143,437.8s-10.212-25.5,7.094-47.569,44.983-50.42,45.534-61.648c0,0,7.113,53.312-15.414,68.4s-38.321,17.5-34.415,40.719Z" transform="translate(-366.151 -328.583)"/>
          <path id="Path_3704" data-name="Path 3704" class="cls-8" d="M392.014,386.269c-25.118,18.282-27.171,39.342-23.273,49.11a2.479,2.479,0,0,0,1.633,1.47c-3.367-22.411,12.3-24.961,34.541-39.862,22.527-15.091,15.414-68.4,15.414-68.4S417.132,367.987,392.014,386.269Z" transform="translate(-364.709 -328.583)"/>
        </g>
        <g id="Group_2350" data-name="Group 2350" transform="translate(0 35.733)">
          <path id="Path_3705" data-name="Path 3705" class="cls-2" d="M392.9,444.247a89.119,89.119,0,0,0,1.534-28.074C392.689,401.6,377.463,393.4,363.239,378c-7.32-7.918-9.485-49.805-4.946-53.7,0,0-25.117,30.438-21.243,52.723S381.9,413.8,385.69,424.567a59.81,59.81,0,0,1,3.478,19.809Z" transform="translate(-336.644 -324.308)"/>
          <g id="Group_2349" data-name="Group 2349" transform="translate(10.119)">
            <path id="Path_3706" data-name="Path 3706" class="cls-8" d="M343.948,335.96c-8.3,22.48.207,49.7,27.781,66.613,20.3,12.451,13.835,38.338,13.835,38.338l3.317-10.214a80.824,80.824,0,0,0-.306-14.851c-1.743-14.576-16.969-22.774-31.193-38.169-7.059-7.638-9.321-46.861-5.4-53.129A134.1,134.1,0,0,0,343.948,335.96Z" transform="translate(-340.906 -323.98)"/>
            <path id="Path_3707" data-name="Path 3707" class="cls-22" d="M345.57,324.875c.285-.359.456-.567.456-.567A2.43,2.43,0,0,0,345.57,324.875Z" transform="translate(-334.496 -324.308)"/>
          </g>
        </g>
        <g id="Group_2351" data-name="Group 2351" transform="translate(78.304 100.532)">
          <path id="Path_3708" data-name="Path 3708" class="cls-2" d="M369.624,405.055s5.886-21.841,20.445-24.783,31.279-24.453,32.181-28.672C422.25,351.6,419.8,392.174,369.624,405.055Z" transform="translate(-369.624 -351.6)"/>
          <path id="Path_3709" data-name="Path 3709" class="cls-8" d="M385.958,387.494c-8.92,4.459-12.629,10.459-13.947,15.905,44.667-14.364,46.959-51.8,46.959-51.8a15.928,15.928,0,0,1-2.27,4.267C412.319,363.543,401.716,379.614,385.958,387.494Z" transform="translate(-366.344 -351.6)"/>
        </g>
      </g>
      <path id="Path_3710" data-name="Path 3710" class="cls-23" d="M426.968,370.727H350.822l9.044,56.871a8.884,8.884,0,0,0,8.773,7.489h40.515a8.884,8.884,0,0,0,8.773-7.489Z" transform="translate(-317.159 -224.782)"/>
      <path id="Path_3711" data-name="Path 3711" class="cls-24" d="M408.522,370.727h-57.7l1.5,9.409h54.706L399.478,427.6a8.882,8.882,0,0,1-8.773,7.489h18.448a8.884,8.884,0,0,0,8.773-7.489l9.041-56.871Z" transform="translate(-317.159 -224.782)"/>
    </g>
  </g>
</svg>
