<svg xmlns="http://www.w3.org/2000/svg" width="681.77" height="637.444" viewBox="0 0 681.77 637.444">
  <g id="Group_2214" data-name="Group 2214" transform="translate(-95.091 -69.62)">
    <g id="Background_Complete" data-name="Background Complete" transform="translate(0 54.953)">
      <g id="Group_2204" data-name="Group 2204" transform="translate(95.091 42.809)">
        <g id="Group_2198" data-name="Group 2198" transform="translate(40.293 297.089)">
          <g id="Group_2196" data-name="Group 2196" transform="translate(84.309 0)">
            <path id="Path_3432" data-name="Path 3432" d="M248.794,330.547H132.585l-7.055-81.381H241.739Z" transform="translate(-125.53 -249.167)" fill="#e6e6e6"/>
            <path id="Path_3433" data-name="Path 3433" d="M252.233,330.547H136.024l-7.055-81.381H245.179Z" transform="translate(-122.95 -249.167)" fill="#f0f0f0"/>
            <path id="Path_3434" data-name="Path 3434" d="M143.737,305.581l-3.874-46.43H221.12l3.874,46.43Z" transform="translate(-114.779 -241.677)" fill="#fff"/>
          </g>
          <g id="Group_2197" data-name="Group 2197" transform="translate(0 81.381)">
            <rect id="Rectangle_50" data-name="Rectangle 50" width="13.635" height="151.788" transform="translate(220.064)" fill="#e6e6e6"/>
            <rect id="Rectangle_51" data-name="Rectangle 51" width="9.469" height="151.788" transform="translate(228.532)" fill="#f0f0f0"/>
            <rect id="Rectangle_52" data-name="Rectangle 52" width="131.976" height="16.753" transform="translate(238.002 16.753) rotate(180)" fill="#f0f0f0"/>
            <rect id="Rectangle_53" data-name="Rectangle 53" width="13.635" height="135.035" transform="translate(97.057 16.753)" fill="#e6e6e6"/>
            <rect id="Rectangle_54" data-name="Rectangle 54" width="9.469" height="135.035" transform="translate(105.526 16.753)" fill="#f0f0f0"/>
            <rect id="Rectangle_55" data-name="Rectangle 55" width="13.635" height="135.035" transform="translate(0 16.753)" fill="#e6e6e6"/>
            <rect id="Rectangle_56" data-name="Rectangle 56" width="9.469" height="135.035" transform="translate(8.469 16.753)" fill="#f0f0f0"/>
            <rect id="Rectangle_57" data-name="Rectangle 57" width="13.635" height="135.035" transform="translate(133.777 16.753)" fill="#e6e6e6"/>
            <rect id="Rectangle_58" data-name="Rectangle 58" width="9.469" height="135.035" transform="translate(142.246 16.753)" fill="#f0f0f0"/>
            <rect id="Rectangle_59" data-name="Rectangle 59" width="106.026" height="16.753" fill="#e6e6e6"/>
          </g>
        </g>
        <g id="Group_2200" data-name="Group 2200" transform="translate(131.565)">
          <g id="Group_2199" data-name="Group 2199">
            <rect id="Rectangle_60" data-name="Rectangle 60" width="410.107" height="228.313" fill="#e0e0e0"/>
            <rect id="Rectangle_61" data-name="Rectangle 61" width="430.557" height="228.313" transform="translate(2.07)" fill="#f5f5f5"/>
            <rect id="Rectangle_62" data-name="Rectangle 62" width="214.245" height="416.487" transform="translate(425.592 7.034) rotate(90)" fill="#fff"/>
            <path id="Path_3435" data-name="Path 3435" d="M286.687,297.678,365.32,83.433H235.548L156.916,297.678Z" transform="translate(-108.95 -76.399)" fill="#f5f5f5"/>
            <path id="Path_3436" data-name="Path 3436" d="M344.4,297.678,423.032,83.433h-97.9L246.5,297.678Z" transform="translate(-41.747 -76.399)" fill="#f5f5f5"/>
          </g>
        </g>
        <g id="Group_2202" data-name="Group 2202" transform="translate(315.374 312.204)">
          <g id="Group_2201" data-name="Group 2201" transform="translate(0 0)">
            <rect id="Rectangle_63" data-name="Rectangle 63" width="34.86" height="218.057" transform="translate(321.423)" fill="#e6e6e6"/>
            <path id="Path_3437" data-name="Path 3437" d="M436.993,389.595h9.166V372.8H427.382Z" transform="translate(-89.876 -171.538)" fill="#fafafa"/>
            <rect id="Rectangle_64" data-name="Rectangle 64" width="34.861" height="218.057" fill="#e6e6e6"/>
            <rect id="Rectangle_65" data-name="Rectangle 65" width="329.422" height="213.526" transform="translate(26.861)" fill="#fafafa"/>
            <path id="Path_3438" data-name="Path 3438" d="M570.4,323.017H253.446V262.711H570.4Zm-315.2-1.75H568.647V264.461H255.2Z" transform="translate(-220.349 -254.122)" fill="#e6e6e6"/>
            <path id="Path_3439" data-name="Path 3439" d="M498.779,288.754h-199.2c-9.251,0-18.158-7.463-24.432-20.473l-.606-1.255H523.818l-.606,1.255C516.938,281.291,508.032,288.754,498.779,288.754ZM277.343,268.776C283.263,280.381,291.316,287,299.576,287h199.2c8.261,0,16.313-6.622,22.235-18.228Z" transform="translate(-204.527 -250.885)" fill="#e6e6e6"/>
            <path id="Path_3440" data-name="Path 3440" d="M259.05,389.595h-9.166V372.8h18.777Z" transform="translate(-223.022 -171.538)" fill="#fafafa"/>
            <path id="Path_3441" data-name="Path 3441" d="M570.4,361.885H253.446V301.577H570.4Zm-315.2-1.75H568.647V303.327H255.2Z" transform="translate(-220.349 -224.967)" fill="#e6e6e6"/>
            <path id="Path_3442" data-name="Path 3442" d="M498.779,327.62h-199.2c-9.251,0-18.158-7.461-24.432-20.473l-.606-1.255H523.818l-.606,1.255C516.938,320.159,508.032,327.62,498.779,327.62ZM277.343,307.642c5.921,11.605,13.973,18.228,22.234,18.228h199.2c8.262,0,16.313-6.622,22.235-18.228Z" transform="translate(-204.527 -221.731)" fill="#e6e6e6"/>
            <path id="Path_3443" data-name="Path 3443" d="M570.4,400.75H253.446V340.443H570.4ZM255.2,399H568.647V342.193H255.2Z" transform="translate(-220.349 -195.813)" fill="#e6e6e6"/>
            <path id="Path_3444" data-name="Path 3444" d="M498.779,366.486h-199.2c-9.251,0-18.158-7.461-24.432-20.471l-.606-1.257H523.818l-.606,1.257C516.938,359.025,508.032,366.486,498.779,366.486ZM277.343,346.508c5.921,11.605,13.973,18.228,22.234,18.228h199.2c8.262,0,16.313-6.622,22.235-18.228Z" transform="translate(-204.527 -192.576)" fill="#e6e6e6"/>
          </g>
        </g>
        <g id="Group_2203" data-name="Group 2203" transform="translate(0 220.43)">
          <path id="Path_3445" data-name="Path 3445" d="M139.351,274.283v4.232h-2.71l-2.236,33.192H101.441l-2.235-33.192H96.5v-4.232Z" transform="translate(-22.707 -153.668)" fill="#e6e6e6"/>
          <path id="Path_3446" data-name="Path 3446" d="M160.129,243.6c-2.711-19.771-29.393-25.419-63.253-26.143-32.222-.688-42.542-12.09-42.542-12.09s.1,46.166,46.531,62.882C144.952,284.119,162.843,263.4,160.129,243.6Z" transform="translate(-54.334 -205.365)" fill="#e6e6e6"/>
          <path id="Path_3447" data-name="Path 3447" d="M105.412,262.715c.565-8.133,13.549-23.077,44.78-16.283,22.582,4.913,30.979-6.794,30.979-6.794s-2.091,33.041-36.056,42.974C112.866,292.045,104.416,277.017,105.412,262.715Z" transform="translate(-16.077 -179.656)" fill="#e6e6e6"/>
          <path id="Path_3448" data-name="Path 3448" d="M113.254,324.069a1.2,1.2,0,0,0,.921-.427c2.265-2.676.411-9.083-2.151-17.953-3.29-11.383-7.384-25.548-3.917-35.834a144.51,144.51,0,0,1,6.719-15.879c4.9-10.368,9.136-19.321,5.606-28.671a1.2,1.2,0,0,0-2.254.851c3.169,8.394-.669,16.512-5.529,26.791a148.432,148.432,0,0,0-6.824,16.138c-3.709,11,.5,25.568,3.884,37.272,2,6.9,4.059,14.038,2.627,15.728a1.205,1.205,0,0,0,.919,1.983Z" transform="translate(-16.794 -190.992)" fill="#e6e6e6"/>
        </g>
      </g>
    </g>
    <g id="Shadow" transform="translate(98.201 667.429)">
      <ellipse id="_Path_" data-name="&lt;Path&gt;" cx="339.33" cy="19.817" rx="339.33" ry="19.817" fill="#f5f5f5"/>
    </g>
    <g id="Login" transform="translate(175.34 178.584)">
      <g id="Group_2207" data-name="Group 2207">
        <path id="Path_3449" data-name="Path 3449" d="M362.308,532.351H113.791l-13.6-399.67H348.7Z" transform="translate(-100.188 -120.278)" fill="#407bff"/>
        <g id="Group_2205" data-name="Group 2205" transform="translate(12.402)">
          <path id="Path_3450" data-name="Path 3450" d="M369.395,525.265H120.877l-13.6-399.67H355.792Z" transform="translate(-107.274 -125.594)" fill="#407bff"/>
          <path id="Path_3451" data-name="Path 3451" d="M369.395,525.265H120.877l-13.6-399.67H355.792Z" transform="translate(-107.274 -125.594)" fill="#fff" opacity="0.3"/>
        </g>
        <g id="Group_2206" data-name="Group 2206" transform="translate(41.676 15.773)">
          <ellipse id="Ellipse_4" data-name="Ellipse 4" cx="68.726" cy="71.105" rx="68.726" ry="71.105" transform="matrix(0.701, -0.713, 0.713, 0.701, 0, 98.015)" fill="#407bff"/>
          <path id="Path_3452" data-name="Path 3452" d="M262.941,215.818A56,56,0,0,1,256.9,243.3a55.308,55.308,0,0,1-49.693,30.212A60.012,60.012,0,0,1,155.459,243.3a58.763,58.763,0,0,1-7.907-27.482,55.383,55.383,0,0,1,55.731-57.695C235.151,158.123,261.856,183.948,262.941,215.818Z" transform="translate(-106.36 -116.967)" fill="#fff"/>
          <path id="Path_3453" data-name="Path 3453" d="M253.5,213.379a55.308,55.308,0,0,1-49.693,30.212,60.012,60.012,0,0,1-51.751-30.212,88.479,88.479,0,0,1,50.2-15.368A93.5,93.5,0,0,1,253.5,213.379Z" transform="translate(-102.957 -87.046)" fill="#407bff" opacity="0.6"/>
          <ellipse id="Ellipse_5" data-name="Ellipse 5" cx="25.266" cy="26.141" rx="25.266" ry="26.141" transform="matrix(0.701, -0.713, 0.713, 0.701, 61.861, 78.802)" fill="#407bff" opacity="0.6"/>
        </g>
        <path id="Path_3454" data-name="Path 3454" d="M296.934,284.763H138.4l-1.072-31.5H295.861Z" transform="translate(-72.328 -29.829)" fill="#fff"/>
        <path id="Path_3455" data-name="Path 3455" d="M298.029,316.936H139.494l-1.072-31.5H296.956Z" transform="translate(-71.507 -5.695)" fill="#fff"/>
        <path id="Path_3456" data-name="Path 3456" d="M212.042,287.919l-38.2,5.194a2.667,2.667,0,0,0-2.3,3.162l5.016,25.6a3.068,3.068,0,0,0,3.393,2.389l38.2-5.2a2.662,2.662,0,0,0,2.3-3.162l-5.016-25.6A3.073,3.073,0,0,0,212.042,287.919Zm-10.977,25.935-6.916.942-.7-8.264a4.869,4.869,0,0,1-2.839-3.492,4.349,4.349,0,0,1,3.768-5.172,5.006,5.006,0,0,1,5.537,3.906,4.259,4.259,0,0,1-1.358,4.064Z" transform="translate(-46.707 -3.851)" fill="#407bff"/>
        <path id="Path_3457" data-name="Path 3457" d="M207.6,296.181h0a2.716,2.716,0,0,1-3.01-2.119l-.492-2.506a14.4,14.4,0,0,0-15.084-11.481,12.322,12.322,0,0,0-11.32,14.691l.565,2.877a2.358,2.358,0,0,1-2.046,2.805h0a2.713,2.713,0,0,1-3.01-2.118l-.478-2.443a17.237,17.237,0,0,1,13.955-20.555,19.591,19.591,0,0,1,22.4,15.165l.564,2.877A2.36,2.36,0,0,1,207.6,296.181Z" transform="translate(-46.034 -13.484)" fill="#407bff"/>
        <path id="Path_3458" data-name="Path 3458" d="M259.2,337.428H156l-.7-20.505H258.5Z" transform="translate(-58.843 17.925)" fill="#407bff"/>
        <path id="Path_3459" data-name="Path 3459" d="M191.159,264.73a5.531,5.531,0,0,1-5.565,5.761,6.007,6.007,0,0,1-5.959-5.761,5.533,5.533,0,0,1,5.567-5.761A6.005,6.005,0,0,1,191.159,264.73Z" transform="translate(-40.595 -25.547)" fill="#263238"/>
        <path id="Path_3460" data-name="Path 3460" d="M176.986,264.73a5.531,5.531,0,0,1-5.565,5.761,6.005,6.005,0,0,1-5.959-5.761,5.531,5.531,0,0,1,5.565-5.761A6.005,6.005,0,0,1,176.986,264.73Z" transform="translate(-51.227 -25.547)" fill="#263238"/>
        <path id="Path_3461" data-name="Path 3461" d="M162.813,264.73a5.532,5.532,0,0,1-5.567,5.761,6.005,6.005,0,0,1-5.957-5.761,5.531,5.531,0,0,1,5.565-5.761A6.005,6.005,0,0,1,162.813,264.73Z" transform="translate(-61.858 -25.547)" fill="#263238"/>
        <path id="Path_3462" data-name="Path 3462" d="M205.331,264.73a5.531,5.531,0,0,1-5.565,5.761,6,6,0,0,1-5.957-5.761,5.531,5.531,0,0,1,5.565-5.761A6.005,6.005,0,0,1,205.331,264.73Z" transform="translate(-29.963 -25.547)" fill="#263238"/>
        <path id="Path_3463" data-name="Path 3463" d="M219.506,264.73a5.533,5.533,0,0,1-5.567,5.761,6.005,6.005,0,0,1-5.957-5.761,5.531,5.531,0,0,1,5.565-5.761A6.007,6.007,0,0,1,219.506,264.73Z" transform="translate(-19.331 -25.547)" fill="#263238"/>
      </g>
    </g>
    <g id="Character" transform="translate(483.642 182.01)">
      <g id="Group_2212" data-name="Group 2212">
        <path id="Path_3464" data-name="Path 3464" d="M340.756,174.28c2.335,3.737,4.263,7.324,6.264,11.047,1.993,3.686,3.8,7.477,5.565,11.3a162.565,162.565,0,0,1,8.926,24.031c.311,1.038.55,2.135.809,3.211l.383,1.621.191.809.226,1.335a23.392,23.392,0,0,1-.546,9.013,51.051,51.051,0,0,1-5.445,13.051,104.168,104.168,0,0,1-15.552,20.429l-7.37-5.579a195.834,195.834,0,0,0,9.865-21.066,44.444,44.444,0,0,0,2.671-9.857,7.788,7.788,0,0,0-.143-3.092l-.693-2.139c-.287-.879-.541-1.752-.889-2.637a193.52,193.52,0,0,0-9.221-21.148c-3.442-6.967-7.258-14.06-11.013-20.681Z" transform="translate(-240.015 -92.5)" fill="#ff8b7b"/>
        <path id="Path_3465" data-name="Path 3465" d="M334.681,224.425l-8.036,4.267,9.239,10.816s5.767-3.9,6.026-9.858Z" transform="translate(-238.619 -54.885)" fill="#ff8b7b"/>
        <path id="Path_3466" data-name="Path 3466" d="M320.466,233.531l9.9,7.854,10.152-3.706-9.238-10.816Z" transform="translate(-243.253 -53.057)" fill="#ff8b7b"/>
        <path id="Path_3467" data-name="Path 3467" d="M302.162,142.428c-.2.973-.873,1.656-1.51,1.526s-.991-1.022-.793-2,.873-1.657,1.51-1.528S302.359,141.455,302.162,142.428Z" transform="translate(-258.752 -117.903)" fill="#263238"/>
        <path id="Path_3468" data-name="Path 3468" d="M303.421,142.522s-3.353,5.163-6.341,7.377c1.395,1.957,4.472,1.817,4.472,1.817Z" transform="translate(-260.795 -116.323)" fill="#ff5652"/>
        <path id="Path_3469" data-name="Path 3469" d="M298.9,167.054l.075-11.47,15.191,1.836s-.261,9.864-8.744,12.764Z" transform="translate(-259.429 -106.525)" fill="#ff8b7b"/>
        <path id="Path_3470" data-name="Path 3470" d="M303.234,150.864l10.7,3.074.2,7.023-15.191-1.836Z" transform="translate(-259.397 -110.065)" fill="#ff8b7b"/>
        <path id="Path_3471" data-name="Path 3471" d="M312.986,153.94l-10.693-3.08-2.083,3.99a17.035,17.035,0,0,0,9.871,14.841,16.732,16.732,0,0,0,3.1-8.733Z" transform="translate(-258.447 -110.068)" opacity="0.2"/>
        <path id="Path_3472" data-name="Path 3472" d="M305.964,140.155a.575.575,0,0,0,.4-.156.581.581,0,0,0,.033-.823,5.786,5.786,0,0,0-4.962-1.93.583.583,0,0,0,.193,1.15h0a4.625,4.625,0,0,1,3.911,1.572A.583.583,0,0,0,305.964,140.155Z" transform="translate(-257.894 -120.31)" fill="#263238"/>
        <path id="Path_3473" data-name="Path 3473" d="M328.187,151.683c-1.766,9.006-2.832,21.483,3.469,27.493,0,0-2.462,9.136-19.2,9.136-18.4,0-8.852-8.017-8.852-8.017,7.648-2.375,7.582-11.087,5.833-18.084Z" transform="translate(-257.756 -109.451)" fill="#ff8b7b"/>
        <path id="Path_3474" data-name="Path 3474" d="M334.839,176.214c1.638-2.321,1.572-9.652-.177-10.945-2.825-2.09-14.906-2.569-31.18,1.174,1.752,7.1-2,10.825-2,10.825Z" transform="translate(-257.493 -100.466)" fill="#407bff"/>
        <path id="Path_3475" data-name="Path 3475" d="M353.265,409.353c-1.234.268-2.469.338-3.065-.168a1.191,1.191,0,0,1-.282-1.355,1.35,1.35,0,0,1,.751-.858c1.663-.793,5.481.763,5.644.83a.3.3,0,0,1,.18.261.29.29,0,0,1-.165.271A15.494,15.494,0,0,1,353.265,409.353Zm-2-1.967a1.572,1.572,0,0,0-.343.114.781.781,0,0,0-.443.5c-.156.525.038.69.1.744.662.564,3.119.044,4.851-.649A9.613,9.613,0,0,0,351.263,407.386Z" transform="translate(-221.222 81.88)" fill="#407bff"/>
        <path id="Path_3476" data-name="Path 3476" d="M355.458,409.793a.28.28,0,0,1-.142-.005c-1.391-.406-4.37-2.522-4.407-3.917a.953.953,0,0,1,.747-.943,1.589,1.589,0,0,1,1.292.1c1.645.84,2.685,4.249,2.728,4.393a.3.3,0,0,1-.072.291A.3.3,0,0,1,355.458,409.793Zm-3.483-4.351a1.162,1.162,0,0,0-.128.035c-.361.126-.355.3-.354.378.021.826,1.985,2.485,3.427,3.157-.361-.984-1.183-2.924-2.237-3.464A1.037,1.037,0,0,0,351.975,405.442Z" transform="translate(-220.417 80.445)" fill="#407bff"/>
        <path id="Path_3477" data-name="Path 3477" d="M301.494,410.688c-1.579,0-3.1-.217-3.616-.928a1.1,1.1,0,0,1,.024-1.274,1.451,1.451,0,0,1,.924-.681c2.048-.558,6.349,1.894,6.533,2a.292.292,0,0,1-.089.539A21.69,21.69,0,0,1,301.494,410.688Zm-1.951-2.387a2.172,2.172,0,0,0-.563.067.881.881,0,0,0-.571.408c-.207.362-.131.543-.058.646.574.795,3.684.814,5.973.49A13.16,13.16,0,0,0,299.542,408.3Z" transform="translate(-260.337 82.611)" fill="#407bff"/>
        <path id="Path_3478" data-name="Path 3478" d="M303.847,411.612a.288.288,0,0,1-.119-.026c-1.486-.667-4.43-3.329-4.2-4.72.052-.327.285-.733,1.085-.815a2.125,2.125,0,0,1,1.617.5c1.566,1.286,1.9,4.6,1.911,4.743a.29.29,0,0,1-.119.264A.3.3,0,0,1,303.847,411.612Zm-3-4.991a1.473,1.473,0,0,0-.175.011c-.525.052-.558.259-.569.327-.135.835,1.866,2.928,3.381,3.838-.157-.968-.6-2.952-1.626-3.8A1.55,1.55,0,0,0,300.844,406.621Z" transform="translate(-258.971 81.347)" fill="#407bff"/>
        <path id="Path_3479" data-name="Path 3479" d="M315.525,421.275h-12.31l-1.226-28.507H314.3Z" transform="translate(-257.112 71.392)" fill="#ff8b7b"/>
        <path id="Path_3480" data-name="Path 3480" d="M371.683,417.181l-12.031,2.6-12.079-26.552,12.031-2.6Z" transform="translate(-222.919 69.788)" fill="#ff8b7b"/>
        <path id="Path_3481" data-name="Path 3481" d="M361.305,407.863l13.516-2.926a1.074,1.074,0,0,1,1.2.6l4.692,10.179a1.811,1.811,0,0,1-1.3,2.522c-4.736.94-7.088,1.16-13.033,2.447-3.656.791-11.911,2.8-16.962,3.9-4.939,1.069-6.79-3.758-4.82-4.657,8.829-4.034,12.52-7.587,14.909-10.9A2.993,2.993,0,0,1,361.305,407.863Z" transform="translate(-225.729 80.502)" fill="#263238"/>
        <path id="Path_3482" data-name="Path 3482" d="M315.478,408.242h13.444a1.073,1.073,0,0,1,1.047.84l2.433,10.942a1.79,1.79,0,0,1-1.771,2.189c-4.85-.082-11.857-.366-17.951-.366-7.128,0-13.283.389-21.64.389-5.053,0-6.456-5.109-4.34-5.572,9.629-2.105,17.492-2.331,25.814-7.462A5.692,5.692,0,0,1,315.478,408.242Z" transform="translate(-269.295 83)" fill="#263238"/>
        <g id="Group_2208" data-name="Group 2208" transform="translate(80.377 72.176)">
          <path id="Path_3483" data-name="Path 3483" d="M337.838,169.124c11.537,2.646,21.049,32.1,21.049,32.1l-23.168,17.659s-8.5-8.017-12.288-22.75C319.465,180.694,326.04,166.42,337.838,169.124Z" transform="translate(-322.274 -168.793)" fill="#407bff"/>
          <path id="Path_3484" data-name="Path 3484" d="M337.838,169.124c11.537,2.646,21.049,32.1,21.049,32.1l-23.168,17.659s-8.5-8.017-12.288-22.75C319.465,180.694,326.04,166.42,337.838,169.124Z" transform="translate(-322.274 -168.793)" opacity="0.4"/>
        </g>
        <path id="Path_3485" data-name="Path 3485" d="M311.621,211.543c-2.881,3.106-5.751,5.87-8.724,8.716q-2.213,2.119-4.526,4.158l-2.324,2.035-.586.506c-.284.243-.628.532-1,.816a14.689,14.689,0,0,1-3.381,2,11.129,11.129,0,0,1-4.256.88A10.326,10.326,0,0,1,283.15,230a10.215,10.215,0,0,1-3.5-2.226,10.569,10.569,0,0,1-2.744-4.531,12.661,12.661,0,0,1-.5-2.6,16.862,16.862,0,0,1,.035-3.129c.082-.84.2-1.566.326-2.252A44.039,44.039,0,0,1,278.8,208.2a65.626,65.626,0,0,1,2.72-6.327c1.11-2.228,2.184-3.845,3.252-5.711a142.836,142.836,0,0,1,14.792-20.051A135.06,135.06,0,0,1,317.5,159.1l6.44,6.629c-4.524,6.052-8.973,12.541-13.086,18.938a205.95,205.95,0,0,0-11.2,19.682c-.756,1.649-1.687,3.455-2.212,4.834a48.438,48.438,0,0,0-1.642,4.72,33.465,33.465,0,0,0-.994,4.421,6.381,6.381,0,0,0-.058.691c0,.137.032.21.014-.161a4.97,4.97,0,0,0-.226-1.146,7.586,7.586,0,0,0-2.02-3.253,8.383,8.383,0,0,0-5.83-2.364,7.384,7.384,0,0,0-2.823.539,7.21,7.21,0,0,0-.866.432l.672-.613,2.1-1.927,4.185-3.919c2.77-2.609,5.555-5.392,8.187-7.974Z" transform="translate(-276.347 -103.884)" fill="#ff8b7b"/>
        <path id="Path_3486" data-name="Path 3486" d="M327.715,181.358c6.267,6.2,8.311,17.494,8.8,27.314l-1.022.788s-8.513-8.026-12.3-22.755c-.234-.922-.436-1.845-.6-2.749Z" transform="translate(-241.662 -87.191)" opacity="0.2"/>
        <g id="Group_2209" data-name="Group 2209" transform="translate(20.932 69.314)">
          <path id="Path_3487" data-name="Path 3487" d="M290.409,182.694c-2.515,13.3-4.09,40.608,3.215,94.69h65.841c.453-10.107-5.9-59.411,3.852-107.034a171.743,171.743,0,0,0-22.041-2.783c-8.413-.406-20.594-.674-27.99,0-3.087.284-6.117.728-8.817,1.206A17.423,17.423,0,0,0,290.409,182.694Z" transform="translate(-288.307 -167.157)" fill="#407bff"/>
          <path id="Path_3488" data-name="Path 3488" d="M290.409,182.694c-2.515,13.3-4.09,40.608,3.215,94.69h65.841c.453-10.107-5.9-59.411,3.852-107.034a171.743,171.743,0,0,0-22.041-2.783c-8.413-.406-20.594-.674-27.99,0-3.087.284-6.117.728-8.817,1.206A17.423,17.423,0,0,0,290.409,182.694Z" transform="translate(-288.307 -167.157)" opacity="0.4"/>
        </g>
        <path id="Path_3489" data-name="Path 3489" d="M300.481,188.487l-11.9-2.849c-.368,7.205-.4,16.138.135,27.179C294.2,206.583,301.185,196.865,300.481,188.487Z" transform="translate(-267.373 -83.98)" opacity="0.2"/>
        <g id="Group_2210" data-name="Group 2210" transform="translate(44.88 460.422)">
          <path id="Path_3490" data-name="Path 3490" d="M301.991,392.772l.63,14.694h12.315l-.63-14.694Z" transform="translate(-301.991 -389.027)" opacity="0.2"/>
          <path id="Path_3491" data-name="Path 3491" d="M359.609,390.632l-12.036,2.606,6.232,13.685,12.036-2.606Z" transform="translate(-267.799 -390.632)" opacity="0.2"/>
        </g>
        <path id="Path_3492" data-name="Path 3492" d="M335.678,153.23c-3.162,11.8-4.414,18.868-11.7,23.775-10.954,7.38-24.593-1.09-25.018-13.6-.385-11.257,4.851-28.664,17.515-31.042A16.662,16.662,0,0,1,335.678,153.23Z" transform="translate(-259.396 -124.173)" fill="#ff8b7b"/>
        <path id="Path_3493" data-name="Path 3493" d="M304.931,152.311c-.583-1.584-3.311-13.779-.751-16.943s31.7-.889,36.005,3.351c7.148,7.034,2.189,13.311-5.637,21.411-5.884,6.089-6.111,12.954-9.08,13.962-5.2,1.766-13.266.107-14.885-5.446S304.931,152.311,304.931,152.311Z" transform="translate(-256.278 -122.8)" fill="#263238"/>
        <path id="Path_3494" data-name="Path 3494" d="M339.445,129.6c-10.3-4.384-29.609.466-40.034-2.048-.373,5.4,2.886,14.057,13.311,16.385,0,0,14.8,2.886,26.252,2.42S348.191,133.324,339.445,129.6Z" transform="translate(-259.068 -127.552)" fill="#263238"/>
        <path id="Path_3495" data-name="Path 3495" d="M323.194,137.757s6.369.718,10.891-2.09C336.017,140.321,325.431,141.6,323.194,137.757Z" transform="translate(-241.206 -121.465)" fill="#263238"/>
        <path id="Path_3496" data-name="Path 3496" d="M311.434,146.886a13.81,13.81,0,0,1-3.458,8.164c-2.683,2.958-5.485,1.117-5.959-2.485-.429-3.241.452-8.684,3.733-10.315C308.982,140.644,311.651,143.234,311.434,146.886Z" transform="translate(-257.168 -116.891)" fill="#ff8b7b"/>
        <path id="Path_3497" data-name="Path 3497" d="M304.69,230.14s13.971,94.076,21.64,129.318c8.4,38.6,53.433,166.286,53.433,166.286l22.036-4.771s-31.49-104.059-38.539-158.015c-5.413-41.446-16.084-132.819-16.084-132.819Z" transform="translate(-255.087 -50.598)" fill="#407bff"/>
        <path id="Path_3498" data-name="Path 3498" d="M344.572,396.922c-.095.019,4.107,7.968,4.107,7.968l24.792-5.368-2.09-7.454Z" transform="translate(-225.172 70.868)" fill="#263238"/>
        <path id="Path_3499" data-name="Path 3499" d="M311.293,249.346c16.154,3.168,14.446,63.407,12.5,94.391-4.659-21.9-11.479-64.044-16.136-93.955A5.521,5.521,0,0,1,311.293,249.346Z" transform="translate(-252.86 -36.286)" opacity="0.3"/>
        <path id="Path_3500" data-name="Path 3500" d="M291.719,230.14s-1.7,92.039-.357,129.579c1.393,39.045,15.032,166.9,15.032,166.9h20.853s.767-125.568,1.694-163.917C329.952,320.893,335,230.14,335,230.14Z" transform="translate(-265.471 -50.598)" fill="#407bff"/>
        <path id="Path_3501" data-name="Path 3501" d="M297.439,394.8c-.1,0,1.176,8.658,1.176,8.658h25.368l.686-7.727Z" transform="translate(-260.53 72.914)" fill="#263238"/>
        <g id="Group_2211" data-name="Group 2211" transform="translate(5.049 71.021)">
          <path id="Path_3502" data-name="Path 3502" d="M323.02,186c5.9,15.907-28.776,34.644-28.776,34.644l-15.013-19.3s10.014-19.936,22.305-28.921C316.721,161.322,318.526,173.891,323.02,186Z" transform="translate(-279.232 -168.133)" fill="#407bff"/>
          <path id="Path_3503" data-name="Path 3503" d="M323.02,186c5.9,15.907-28.776,34.644-28.776,34.644l-15.013-19.3s10.014-19.936,22.305-28.921C316.721,161.322,318.526,173.891,323.02,186Z" transform="translate(-279.232 -168.133)" opacity="0.4"/>
        </g>
      </g>
    </g>
    <g id="Thinking" transform="translate(575.37 69.62)">
      <g id="Group_2213" data-name="Group 2213">
        <ellipse id="Ellipse_6" data-name="Ellipse 6" cx="63.157" cy="40.253" rx="63.157" ry="40.253" transform="translate(29.8)" fill="#407bff"/>
        <path id="Path_3504" data-name="Path 3504" d="M376.4,113.137a17.7,17.7,0,0,1-17.375-14.689,17.884,17.884,0,0,1,13.492-20.24h0a17.6,17.6,0,0,1,18.942,7.9L432,77.744a6.345,6.345,0,0,1,7.431,4.37,6.106,6.106,0,0,1-4.673,7.534l-1.064.221a1.062,1.062,0,0,0-.732.539,1.074,1.074,0,0,0-.061.908l.714,1.859a2.775,2.775,0,0,1-1.078,3.365,3.411,3.411,0,0,0-1.572,2.475,2.707,2.707,0,0,1-2.107,2.429l-.833.172a2.719,2.719,0,0,1-2.9-1.393,3.4,3.4,0,0,0-6.318,1.3,2.715,2.715,0,0,1-2.109,2.426l-.817.168a2.719,2.719,0,0,1-2.895-1.393,3.42,3.42,0,0,0-2.436-1.649,2.776,2.776,0,0,1-2.326-2.664l-.081-1.99a1.054,1.054,0,0,0-.413-.809,1.066,1.066,0,0,0-.887-.208l-12.919,2.667a17.642,17.642,0,0,1-13.915,14.689A17.886,17.886,0,0,1,376.4,113.137Zm-3.5-33.223A16.112,16.112,0,0,0,360.75,98.151a15.929,15.929,0,0,0,31.525-.9l.072-.63L406.5,93.7a2.832,2.832,0,0,1,3.4,2.66l.081,1.99a1.038,1.038,0,0,0,.833,1,5.126,5.126,0,0,1,3.693,2.5,1,1,0,0,0,1.029.558l.817-.168a1,1,0,0,0,.725-.921,5.154,5.154,0,0,1,9.57-1.974.983.983,0,0,0,1.027.557l.835-.172a.986.986,0,0,0,.719-.915,5.106,5.106,0,0,1,2.387-3.759,1.035,1.035,0,0,0,.367-1.25l-.714-1.86a2.832,2.832,0,0,1,2.074-3.791l1.064-.221a4.354,4.354,0,0,0,3.334-5.378,4.574,4.574,0,0,0-5.387-3.1l-41.774,8.621-.313-.551A15.849,15.849,0,0,0,372.9,79.915Zm3.52,26.752a11.234,11.234,0,1,1,2.286-.233h0A11.4,11.4,0,0,1,376.422,106.667Zm.052-20.674a9.664,9.664,0,0,0-1.944.2,9.458,9.458,0,0,0,3.826,18.525h0a9.46,9.46,0,0,0-1.881-18.726Z" transform="translate(-306.244 -52.624)" fill="#fff"/>
        <ellipse id="Ellipse_7" data-name="Ellipse 7" cx="20.758" cy="13.23" rx="20.758" ry="13.23" transform="translate(20.782 77.644)" fill="#407bff" opacity="0.6"/>
        <ellipse id="Ellipse_8" data-name="Ellipse 8" cx="8.521" cy="5.431" rx="8.521" ry="5.431" transform="translate(0 98.674)" fill="#407bff" opacity="0.3"/>
      </g>
    </g>
  </g>
</svg>
