<svg xmlns="http://www.w3.org/2000/svg" xmlns:xlink="http://www.w3.org/1999/xlink" viewBox="0 0 480.75 540.69"><defs><style>.cls-1{fill:#ecc19c;}.cls-2{fill:#f0d0b4;}.cls-3{fill:#cf9e76;}.cls-4{fill:#f5e0cd;}.cls-5{fill:url(#linear-gradient);}.cls-6{fill:#15a9fa;}.cls-7{fill:#15b0fc;}.cls-8{fill:#15b7fd;}.cls-9{fill:#15beff;}.cls-10{fill:#51dcff;}.cls-11{fill:url(#linear-gradient-2);}</style><linearGradient id="linear-gradient" x1="-714.42" y1="861.25" x2="-714.42" y2="862.25" gradientTransform="matrix(176.38, 0, 0, -289.33, 126238.54, 249515.88)" gradientUnits="userSpaceOnUse"><stop offset="0" stop-color="#1c75bc"/><stop offset="1" stop-color="#15a9fa"/></linearGradient><linearGradient id="linear-gradient-2" x1="-707.6" y1="859.99" x2="-707.6" y2="860.99" gradientTransform="matrix(65.96, 0, 0, -108.2, 46820.86, 93160.93)" gradientUnits="userSpaceOnUse"><stop offset="0" stop-color="#67bcff"/><stop offset="1" stop-color="#90deff"/></linearGradient></defs><g id="Layer_2" data-name="Layer 2"><g id="Layer_1-2" data-name="Layer 1"><g id="Group_2194" data-name="Group 2194"><g id="Group_2192" data-name="Group 2192"><path id="Path_3415" data-name="Path 3415" class="cls-1" d="M.71,540.69s-.07-.62-.16-1.77c-1.75-21.63-12.4-232.13,238.68-180.18,0,0,60.47,3.89,79.89-4.44s16.08-48.81,18.58-72.94,19.83-33.43,25.24-31.35,4.44,20,4.44,20,4.83-47.84,33.54-47.84c9.7,0,9.73,17.6,9.73,17.6s5-42.71,32.66-42.71c12.54,0,12.69,27.73,12.69,27.73s11.86-11,21.22-1.66c11.6,11.6-8.14,108.63-19.14,143.12-13.3,41.7-65.32,113.16-117.74,127.73C278.65,511.09,83.36,445.56.71,540.69Z"/><path id="Path_3416" data-name="Path 3416" class="cls-2" d="M325.69,364.37s-8.15,16.84,1.33,22.25c15,8.52,45.35-1,45.35-1s12.48-20.46-4.93-30C358.27,350.58,325.69,364.37,325.69,364.37Z"/><path id="Path_3417" data-name="Path 3417" class="cls-3" d="M197.63,442a44.31,44.31,0,0,1,3.82-2.28c2.51-1.47,6.28-3.44,11.22-5.71s11.05-4.71,18.15-7.33c7.2-2.32,15.27-5.23,24.44-7,9-2.45,19.06-3.78,29.65-5.34,5.29-1,10.81-1,16.41-1.43l17.07-.9a118.91,118.91,0,0,0,17.16-1.61,79.77,79.77,0,0,0,16.67-4.83c10.65-4.37,20.5-12,25.17-22.35A30,30,0,0,0,380.31,367a29.15,29.15,0,0,0-.82-3.68,11.92,11.92,0,0,0-.87-2,6.69,6.69,0,0,1-.82-1.1,15.9,15.9,0,0,0-6.34-3.8c-10.6-3-22.82-1.38-33.73,1q-4.14.94-8.15,2.12c-3,.8-5.5,1.45-8.35,2a135.55,135.55,0,0,1-16.69,1.79,248.94,248.94,0,0,1-30.17-.57c-18.58-1.31-33.86-3.95-44.54-5.65l-16.74-3,16.92,1.7c10.73,1.16,26.13,2.5,44.56,3.19a246.35,246.35,0,0,0,29.64-.53,134.13,134.13,0,0,0,15.71-2.25c2.59-.63,5.51-1.44,8-2.12,2.78-.87,5.61-1.64,8.48-2.34,11.51-2.5,23.87-4.73,36.94-1.26a21.74,21.74,0,0,1,9.17,5.53c.65.84,1.27,1.72,1.85,2.63a14.86,14.86,0,0,1,1,2.22,30.49,30.49,0,0,1,1.29,5.27A36.21,36.21,0,0,1,383.41,386c-5.76,12.31-17.16,20.62-28.83,25.26a86.67,86.67,0,0,1-18,5,125.36,125.36,0,0,1-17.95,1.48l-17,.56c-5.51.25-10.95,0-16.17.82-10.46,1.15-20.4,2.09-29.37,4.16-9.1,1.53-17.2,3.9-24.48,5.74-7.16,2.16-13.4,4.19-18.4,6.17s-9,3.56-11.54,4.84A40,40,0,0,0,197.63,442Z"/><path id="Path_3418" data-name="Path 3418" class="cls-3" d="M367.44,267.76s-.38,21.24-1.51,42.53c-.59,10.65-1.24,21.26-2.31,29.38-.25,2-.49,3.88-.69,5.54s-.64,3.11-1.07,4.65L360.74,354l-8.9-4.53,1-2.81c.46-1.12.87-2.25,1.22-3.41.38-1.52.8-3.24,1.26-5.13,1.91-7.51,3.82-18,5.64-28.4C364.56,288.84,367.44,267.76,367.44,267.76Z"/><path id="Path_3419" data-name="Path 3419" class="cls-3" d="M410.65,239.75a482.7,482.7,0,0,1-9,59.81c-1.61,7.43-3.56,14.79-5.58,21.67s-4.36,13.21-6.55,18.59c-1.08,2.7-2.32,5.1-3.29,7.27a51.4,51.4,0,0,1-2.89,5.5l-2.71,4.75-8.2-5.7,2.78-4.05a46.67,46.67,0,0,0,3-4.79c1.06-2,2.4-4.07,3.63-6.53,2.49-4.91,5.17-10.79,7.74-17.27s5-13.56,7.2-20.72A483.08,483.08,0,0,0,410.65,239.75Z"/><path id="Path_3420" data-name="Path 3420" class="cls-3" d="M456,224.77s-2.78,1.21-5.94,5.22-6.78,10.3-9.74,18.47a184.56,184.56,0,0,0-7.65,28.61c-1.87,10.64-3.68,22.28-6.22,33.73-4.95,22.9-12,45.69-22.05,61.26-4.93,7.77-10.78,13.55-15.8,16.62a34.75,34.75,0,0,1-6.16,3.08l-2.37.8-2.54-9.67,1.64-.45a25.74,25.74,0,0,0,4.5-2c3.78-2.08,8.85-6.42,13.64-13.2,9.74-13.5,17.93-35.44,23.86-57.75,3.09-11.19,5.29-22.5,7.95-33.24a187,187,0,0,1,9.54-28.5c3.5-8.09,7.56-14.32,11-18.12S456,224.77,456,224.77Z"/><path id="Path_3421" data-name="Path 3421" class="cls-4" d="M325.69,364.37s13.67,6.85,1.33,22.25C327,386.62,317.18,379.81,325.69,364.37Z"/></g><path id="Path_3422" data-name="Path 3422" class="cls-5" d="M300.12,163.22c17.35,40.91,28.77,98.52-3.85,135.26s-88.54,42.65-126.73,10.27c-37.89-32.13-33.43-88-15.41-129.52,20.84-48,56.49-88.46,72.65-138.66,15.31,18.07,26,39.33,38.57,59.28,12.82,20.4,25.34,41.13,34.77,63.37Z"/><g id="Group_2193" data-name="Group 2193"><path id="Path_3423" data-name="Path 3423" class="cls-6" d="M228.9,324.44c-23.41,0-45.84-9.38-61.53-25.73-16.78-17.49-23.51-42.43-20-74.15,3.36-30.31,17.78-56.84,33.53-83.6,3.49-5.92,7.14-11.94,10.67-17.77,13.63-22.48,27.67-45.64,37.19-70.71,7.78,10.48,14.53,21.9,21.11,33,3.4,5.75,6.91,11.68,10.53,17.45,12.16,19.34,24.83,40.1,34.34,62.54,22.08,52,21.89,94.25-.56,125.47a79.61,79.61,0,0,1-64.35,33.47Z"/><path id="Path_3424" data-name="Path 3424" class="cls-7" d="M239.06,75c4.95,8,14.05,20.5,19,28.81,3,5,6.08,10.13,9.22,15.17,6.65,10.63,13.38,21.7,19.38,33.23,3.65,7,7,14.2,10,21.56,14.8,36.23,16.83,68,7.32,95.33-2.86,8.24-3.86,7-6.24,11-13.28,22.32-33.38,38.27-59.62,41.16-.13,0-.88.08-1,.11-24.42,2.48-48.21-6.9-60.64-27.59-12.85-21.39-11.05-46.63-4.25-75.57,5.75-24.46,17.23-46.45,29.73-68.62,2.8-5,5.68-10,8.46-15C221.1,115.78,231.71,96.25,239.06,75Z"/><path id="Path_3425" data-name="Path 3425" class="cls-8" d="M249.34,97.55c2.13,5.57,13.55,19.12,16.89,24.61,2.58,4.25,5.25,8.58,7.93,12.88,5.7,9.19,11.37,18.69,16.26,28.49,3,6.08,5.78,12.27,8.17,18.56,11.19,29.09,13.07,56.29,5.84,81.7-3.05,10.74-1.9,2.85-3.12,5.5-11.11,24.15-28.21,43.35-54.9,48.85-.24.07-.8.14-1,.21-25.44,4.95-50.71-4.3-59.75-29.44s.85-50.83,11.48-77c7.58-18.65,16.68-36.06,25.93-53.64,2.1-4,4.22-8.1,6.25-12.14C237,130.85,244.18,115,249.34,97.55Z"/><path id="Path_3426" data-name="Path 3426" class="cls-9" d="M304.87,258.45c-6.1,27-23,48.43-50.18,56.53-26.79,8-54.35-1-59.95-31-5.4-29,11.85-55.52,27.23-78.42,18.67-27.82,30.51-52.82,37.65-85.5-.69,3.11,13.09,17.71,14.78,20.4,7,11.05,14.24,22.54,19.78,34.36,12.51,26.69,17.28,54.68,10.69,83.61C301.86,271.74,305.15,257.24,304.87,258.45Z"/></g><path id="Path_3428" data-name="Path 3428" class="cls-10" d="M276.77,159.69s.45.62,1.22,1.8,1.95,2.9,3.29,5.16,3,5,4.69,8.28,3.55,7,5.32,11.17l1.35,3.22c.42,1.11.84,2.25,1.27,3.4.9,2.3,1.65,4.75,2.45,7.26A118.48,118.48,0,0,1,300,216.31a110,110,0,0,1,1.12,17.95c0,3.06-.18,6.13-.46,9.18-.16,1.56-.27,3-.47,4.66l-.28,2.2-.36,2.4a91.26,91.26,0,0,1-5,18.3,68.88,68.88,0,0,1-3.92,8.51,67.42,67.42,0,0,1-4.83,7.8A63.25,63.25,0,0,1,274,300a61.51,61.51,0,0,1-13,8.13,64.25,64.25,0,0,1-12,4.2,72.31,72.31,0,0,1-9.49,1.6c-2.64.25-4.71.31-6.12.32h-2.16l2-.7c1.34-.4,3.25-1.15,5.66-2.06a83.63,83.63,0,0,0,18.31-9.81,64.6,64.6,0,0,0,18.6-20.73,74.88,74.88,0,0,0,6.23-14.35,93.16,93.16,0,0,0,3.54-15.9l.28-2,.24-2.2c.14-1.26.24-2.78.36-4.16.17-2.81.43-5.61.48-8.37.19-5.53.12-10.94-.19-16.2s-1-10.34-1.67-15.2-1.56-9.48-2.44-13.76S281,180.52,280.27,177s-1.42-6.6-1.91-9.18C277.23,162.7,276.77,159.69,276.77,159.69Z"/><path id="Path_3429" data-name="Path 3429" class="cls-11" d="M173.12,45.86c6.49,15.3,10.76,36.85-1.44,50.59s-33.11,16-47.39,3.84-12.51-32.92-5.77-48.44c7.8-17.94,21.13-33.07,27.17-51.85,5.73,6.76,9.74,14.71,14.43,22.17,4.79,7.63,9.47,15.38,13,23.7Z"/></g></g></g></svg>