<svg xmlns="http://www.w3.org/2000/svg" width="35.626" height="50" viewBox="0 0 35.626 50">
  <defs>
    <style>
      .cls-1 {
        fill: #0e93ea;
      }
    </style>
  </defs>
  <g id="miscellaneous" transform="translate(-73.6 0)">
    <path id="Exclusion_3" data-name="Exclusion 3" class="cls-1" d="M-21.587-.81a17.712,17.712,0,0,1-12.578-5.2A17.684,17.684,0,0,1-39.4-18.623c0-2.257.936-5.354,2.783-9.2a95.087,95.087,0,0,1,6.123-10.6c4.4-6.729,8.862-12.327,8.906-12.383l.021.025c.774.982,4.838,6.2,8.885,12.4A96.186,96.186,0,0,1-6.558-27.783c1.847,3.845,2.783,6.926,2.783,9.16A17.684,17.684,0,0,1-9.009-6.005,17.711,17.711,0,0,1-21.587-.81ZM-33.15-20.185a1.6,1.6,0,0,0-1.562,1.562A13.14,13.14,0,0,0-21.587-5.5,1.6,1.6,0,0,0-20.025-7.06a1.6,1.6,0,0,0-1.562-1.562,10.012,10.012,0,0,1-10-10A1.6,1.6,0,0,0-33.15-20.185Z" transform="translate(113 50.81)"/>
  </g>
</svg>
