<svg xmlns="http://www.w3.org/2000/svg" xmlns:xlink="http://www.w3.org/1999/xlink" width="727.15" height="729.094" viewBox="0 0 727.15 729.094">
  <defs>
    <clipPath id="clip-path">
      <circle id="Ellipse_17" data-name="Ellipse 17" cx="33.77" cy="33.77" r="33.77" fill="none"/>
    </clipPath>
    <clipPath id="clip-path-2">
      <path id="Path_3589" data-name="Path 3589" d="M535.455,449.821H147.689c-7.751,0-14.034-5.985-14.034-13.369V203.291c0-7.384,6.283-13.371,14.034-13.371H535.455c7.751,0,14.032,5.987,14.032,13.371V436.452C549.487,443.836,543.206,449.821,535.455,449.821Z" transform="translate(-133.655 -189.92)" fill="none"/>
    </clipPath>
  </defs>
  <g id="Group_2278" data-name="Group 2278" transform="translate(-38.864 -33.728)">
    <g id="Group_2234" data-name="Group 2234" transform="translate(38.864 195.583)">
      <g id="Group_2225" data-name="Group 2225" transform="translate(0 19.471)">
        <path id="Path_3505" data-name="Path 3505" d="M249.924,245.77,160.9,336.008,38.864,215.612l77.018-78.065h0l10.6-.793,12.033-.9Z" transform="translate(-38.864 -135.854)" fill="#e6e7e8"/>
        <path id="Path_3506" data-name="Path 3506" d="M81.961,137.547l10.622,10.48,12.01-12.173h0Z" transform="translate(-4.943 -135.854)" fill="#a6a8ab"/>
        <g id="Group_2220" data-name="Group 2220" transform="translate(21.331 18.521)">
          <rect id="Rectangle_69" data-name="Rectangle 69" width="35.611" height="35.611" transform="matrix(0.702, -0.712, 0.712, 0.702, 0, 66.793)" fill="#d0d2d3"/>
          <g id="Group_2219" data-name="Group 2219" transform="translate(34.22 0)">
            <rect id="Rectangle_70" data-name="Rectangle 70" width="48.823" height="4.384" transform="translate(0 34.755) rotate(-45.387)" fill="#d0d2d3"/>
            <rect id="Rectangle_71" data-name="Rectangle 71" width="48.823" height="4.384" transform="translate(6.528 41.195) rotate(-45.387)" fill="#d0d2d3"/>
            <rect id="Rectangle_72" data-name="Rectangle 72" width="48.823" height="4.384" transform="translate(13.055 47.635) rotate(-45.387)" fill="#d0d2d3"/>
            <rect id="Rectangle_73" data-name="Rectangle 73" width="48.823" height="4.384" transform="translate(19.583 54.075) rotate(-45.387)" fill="#d0d2d3"/>
          </g>
        </g>
        <g id="Group_2222" data-name="Group 2222" transform="translate(56.085 52.809)">
          <rect id="Rectangle_74" data-name="Rectangle 74" width="35.611" height="35.611" transform="matrix(0.702, -0.712, 0.712, 0.702, 0, 66.793)" fill="#d0d2d3"/>
          <g id="Group_2221" data-name="Group 2221" transform="translate(34.22 0)">
            <rect id="Rectangle_75" data-name="Rectangle 75" width="48.823" height="4.384" transform="translate(0 34.755) rotate(-45.387)" fill="#d0d2d3"/>
            <rect id="Rectangle_76" data-name="Rectangle 76" width="48.823" height="4.384" transform="translate(6.528 41.195) rotate(-45.387)" fill="#d0d2d3"/>
            <rect id="Rectangle_77" data-name="Rectangle 77" width="48.823" height="4.384" transform="translate(13.055 47.635) rotate(-45.387)" fill="#d0d2d3"/>
            <rect id="Rectangle_78" data-name="Rectangle 78" width="48.823" height="4.384" transform="translate(19.583 54.075) rotate(-45.387)" fill="#d0d2d3"/>
          </g>
        </g>
        <g id="Group_2224" data-name="Group 2224" transform="translate(90.838 87.096)">
          <rect id="Rectangle_79" data-name="Rectangle 79" width="35.611" height="35.611" transform="matrix(0.702, -0.712, 0.712, 0.702, 0, 66.793)" fill="#d0d2d3"/>
          <g id="Group_2223" data-name="Group 2223" transform="translate(34.22 0)">
            <rect id="Rectangle_80" data-name="Rectangle 80" width="48.823" height="4.384" transform="translate(0 34.755) rotate(-45.387)" fill="#d0d2d3"/>
            <rect id="Rectangle_81" data-name="Rectangle 81" width="48.823" height="4.384" transform="translate(6.528 41.195) rotate(-45.387)" fill="#d0d2d3"/>
            <rect id="Rectangle_82" data-name="Rectangle 82" width="48.823" height="4.384" transform="translate(13.055 47.635) rotate(-45.387)" fill="#d0d2d3"/>
            <rect id="Rectangle_83" data-name="Rectangle 83" width="48.823" height="4.384" transform="translate(19.583 54.075) rotate(-45.387)" fill="#d0d2d3"/>
          </g>
        </g>
      </g>
      <g id="Group_2232" data-name="Group 2232" transform="translate(4.99)">
        <path id="Path_3507" data-name="Path 3507" d="M249.122,244.865l-96.827,81.813L41.656,195.735l83.765-70.776h0l10.627.169,12.066.192Z" transform="translate(-41.656 -124.959)" fill="#f9fafe"/>
        <path id="Path_3508" data-name="Path 3508" d="M88.529,124.959l9.63,11.4,13.062-11.036h0Z" transform="translate(-4.764 -124.959)" fill="#a6a8ab"/>
        <g id="Group_2227" data-name="Group 2227" transform="translate(20.741 17.919)">
          <rect id="Rectangle_84" data-name="Rectangle 84" width="35.611" height="35.611" transform="translate(0 60.321) rotate(-40.196)" fill="#d0d2d3"/>
          <g id="Group_2226" data-name="Group 2226" transform="translate(36.978 0)">
            <rect id="Rectangle_85" data-name="Rectangle 85" width="48.823" height="4.384" transform="matrix(0.764, -0.645, 0.645, 0.764, 0, 31.51)" fill="#d0d2d3"/>
            <rect id="Rectangle_86" data-name="Rectangle 86" width="48.823" height="4.384" transform="matrix(0.764, -0.645, 0.645, 0.764, 5.918, 38.514)" fill="#d0d2d3"/>
            <rect id="Rectangle_87" data-name="Rectangle 87" width="48.823" height="4.384" transform="matrix(0.764, -0.645, 0.645, 0.764, 11.836, 45.519)" fill="#d0d2d3"/>
            <rect id="Rectangle_88" data-name="Rectangle 88" width="48.823" height="4.384" transform="matrix(0.764, -0.645, 0.645, 0.764, 17.754, 52.523)" fill="#d0d2d3"/>
          </g>
        </g>
        <g id="Group_2229" data-name="Group 2229" transform="translate(52.25 55.21)">
          <rect id="Rectangle_89" data-name="Rectangle 89" width="35.611" height="35.611" transform="matrix(0.764, -0.645, 0.645, 0.764, 0, 60.321)" fill="#d0d2d3"/>
          <g id="Group_2228" data-name="Group 2228" transform="translate(36.978 0)">
            <rect id="Rectangle_90" data-name="Rectangle 90" width="48.823" height="4.384" transform="matrix(0.764, -0.645, 0.645, 0.764, 0, 31.51)" fill="#d0d2d3"/>
            <rect id="Rectangle_91" data-name="Rectangle 91" width="48.823" height="4.384" transform="translate(5.918 38.514) rotate(-40.196)" fill="#d0d2d3"/>
            <rect id="Rectangle_92" data-name="Rectangle 92" width="48.823" height="4.384" transform="translate(11.836 45.519) rotate(-40.196)" fill="#d0d2d3"/>
            <rect id="Rectangle_93" data-name="Rectangle 93" width="48.823" height="4.384" transform="translate(17.754 52.523) rotate(-40.196)" fill="#d0d2d3"/>
          </g>
        </g>
        <g id="Group_2231" data-name="Group 2231" transform="translate(83.758 92.501)">
          <rect id="Rectangle_94" data-name="Rectangle 94" width="35.611" height="35.611" transform="translate(0 60.321) rotate(-40.196)" fill="#d0d2d3"/>
          <g id="Group_2230" data-name="Group 2230" transform="translate(36.978 0)">
            <rect id="Rectangle_95" data-name="Rectangle 95" width="48.823" height="4.384" transform="matrix(0.764, -0.645, 0.645, 0.764, 0, 31.51)" fill="#d0d2d3"/>
            <rect id="Rectangle_96" data-name="Rectangle 96" width="48.823" height="4.384" transform="matrix(0.764, -0.645, 0.645, 0.764, 5.918, 38.514)" fill="#d0d2d3"/>
            <rect id="Rectangle_97" data-name="Rectangle 97" width="48.822" height="4.384" transform="matrix(0.764, -0.645, 0.645, 0.764, 11.836, 45.519)" fill="#d0d2d3"/>
            <rect id="Rectangle_98" data-name="Rectangle 98" width="48.823" height="4.384" transform="matrix(0.764, -0.645, 0.645, 0.764, 17.754, 52.523)" fill="#d0d2d3"/>
          </g>
        </g>
      </g>
      <g id="Group_2233" data-name="Group 2233" transform="translate(65.631 22.867)">
        <path id="Path_3509" data-name="Path 3509" d="M89.027,220.034,77.168,199.556a11.712,11.712,0,0,1,4.264-16l76.351-44.219a11.71,11.71,0,0,1,16,4.264l84.191,145.364a11.713,11.713,0,0,1-4.266,16l-61.643,35.7-24.84,14.386-10.134,5.869a11.71,11.71,0,0,1-16-4.264L80.5,252.041a11.71,11.71,0,0,1,4.264-16h0A11.711,11.711,0,0,0,89.027,220.034Z" transform="translate(-75.59 -137.754)" fill="#ffce55"/>
        <path id="Path_3510" data-name="Path 3510" d="M250.432,292.511,147.223,352.287l-62.7-108.261,5.415-3.136A16.678,16.678,0,0,0,96.011,218.1L79.289,189.227l83.36-48.281Z" transform="translate(-72.678 -135.242)" fill="none" stroke="#fff" stroke-miterlimit="10" stroke-width="0.35" opacity="0.3"/>
        <path id="Path_3511" data-name="Path 3511" d="M193.453,276.987h0a7.194,7.194,0,0,0,2.62-9.831L132.117,156.73a7.193,7.193,0,0,0-9.831-2.618h0a7.192,7.192,0,0,0-2.62,9.829l63.956,110.427A7.194,7.194,0,0,0,193.453,276.987Z" transform="translate(-41.661 -125.644)" fill="#fff" opacity="0.2"/>
      </g>
    </g>
    <g id="Group_2241" data-name="Group 2241" transform="translate(172.578 43.615)">
      <g id="Group_2236" data-name="Group 2236" transform="translate(133.837 18.709)">
        <path id="Path_3512" data-name="Path 3512" d="M273.617,81.8a17.28,17.28,0,0,0,.466-3.98,17.515,17.515,0,0,0-24.812-15.95,12.9,12.9,0,0,0-24.847-3.249A14.766,14.766,0,0,0,207.6,66.349c-.529-.048-1.062-.08-1.6-.08A17.537,17.537,0,0,0,188.579,81.8Z" transform="translate(-188.579 -50.39)" fill="#caeaff"/>
        <g id="Group_2235" data-name="Group 2235" transform="translate(43.551)">
          <path id="Path_3513" data-name="Path 3513" d="M217.265,50.39a12.824,12.824,0,0,0-4.316.752,12.907,12.907,0,0,1,8.514,10.73,17.473,17.473,0,0,1,7.272-1.592c.365,0,.72.034,1.079.055A12.9,12.9,0,0,0,217.265,50.39Z" transform="translate(-212.949 -50.39)" fill="#81d4fa"/>
          <path id="Path_3514" data-name="Path 3514" d="M228.5,55.924a17.283,17.283,0,0,0-4.3.561,17.535,17.535,0,0,1,13.21,16.981,17.281,17.281,0,0,1-.466,3.98h8.626a17.281,17.281,0,0,0,.466-3.98A17.542,17.542,0,0,0,228.5,55.924Z" transform="translate(-204.089 -46.034)" fill="#81d4fa"/>
          <path id="Path_3515" data-name="Path 3515" d="M222.663,57.492a17.9,17.9,0,0,1,2.975-1.031,17.554,17.554,0,0,0-3.252-.506A13.159,13.159,0,0,1,222.663,57.492Z" transform="translate(-205.521 -46.01)" fill="#caeaff"/>
        </g>
      </g>
      <g id="Group_2238" data-name="Group 2238">
        <path id="Path_3516" data-name="Path 3516" d="M244.07,90.041A20.659,20.659,0,0,0,223.8,67.265a20.816,20.816,0,0,0-12.971-8.753A20.673,20.673,0,0,0,170.512,54.5a20.592,20.592,0,0,0-25.428,14.193,20.612,20.612,0,0,0-31.047,21.35Z" transform="translate(-113.687 -39.921)" fill="#caeaff"/>
        <g id="Group_2237" data-name="Group 2237" transform="translate(15.528)">
          <path id="Path_3517" data-name="Path 3517" d="M139.926,48.183c.025-.08.059-.159.084-.239-.184.043-.372.077-.554.125C139.612,48.108,139.771,48.141,139.926,48.183Z" transform="translate(-108.933 -33.606)" fill="#caeaff"/>
          <path id="Path_3518" data-name="Path 3518" d="M192.359,67.265a20.816,20.816,0,0,0-12.971-8.753,20.669,20.669,0,0,0-25.75-17.93,20.67,20.67,0,0,1,15.446,17.93,20.816,20.816,0,0,1,12.971,8.753A20.663,20.663,0,0,1,202.43,87.922c0,.715-.038,1.423-.107,2.119h10.3a20.659,20.659,0,0,0-20.265-22.776Z" transform="translate(-97.77 -39.921)" fill="#81d4fa"/>
          <path id="Path_3519" data-name="Path 3519" d="M122.376,55a20.709,20.709,0,0,1,5.567,2.354,20.422,20.422,0,0,1,1.11-2.967c-.506-.038-1.017-.059-1.533-.059A20.608,20.608,0,0,0,122.376,55Z" transform="translate(-122.376 -28.582)" fill="#caeaff"/>
        </g>
      </g>
      <g id="Group_2240" data-name="Group 2240" transform="translate(53.198 9.296)">
        <path id="Path_3520" data-name="Path 3520" d="M276.88,100.794a12.575,12.575,0,0,0,.191-2.105h0a12.43,12.43,0,0,0-12.429-12.431h-8.247a18.433,18.433,0,0,0-16.05-21.216A27.051,27.051,0,0,0,187.914,66a18.55,18.55,0,0,0-24.9,17.472,18.77,18.77,0,0,0,.231,2.782h-7.359a12.43,12.43,0,0,0-12.431,12.431h0a12.579,12.579,0,0,0,.191,2.105Z" transform="translate(-143.455 -45.123)" fill="#fff"/>
        <g id="Group_2239" data-name="Group 2239" transform="translate(67.489)">
          <path id="Path_3521" data-name="Path 3521" d="M210.621,65.042a26.834,26.834,0,0,0-29.4-19.694A27.056,27.056,0,0,1,204,65.042a18.433,18.433,0,0,1,16.051,21.216h6.617a18.433,18.433,0,0,0-16.05-21.216Z" transform="translate(-181.22 -45.123)" fill="#81d4fa"/>
          <path id="Path_3522" data-name="Path 3522" d="M219.995,80.572h0a12.4,12.4,0,0,1-.193,2.105h6.619a12.582,12.582,0,0,0,.191-2.105h0a12.43,12.43,0,0,0-12.429-12.431h-6.619A12.43,12.43,0,0,1,219.995,80.572Z" transform="translate(-160.485 -27.006)" fill="#81d4fa"/>
        </g>
      </g>
    </g>
    <rect id="Rectangle_99" data-name="Rectangle 99" width="439.402" height="288.248" rx="8.297" transform="translate(196.478 297.501)" fill="#303637"/>
    <path id="Path_3523" data-name="Path 3523" d="M535.455,449.821H147.689c-7.751,0-14.034-5.985-14.034-13.369V203.291c0-7.384,6.283-13.371,14.034-13.371H535.455c7.751,0,14.032,5.987,14.032,13.371V436.452C549.487,443.836,543.206,449.821,535.455,449.821Z" transform="translate(74.608 121.754)" fill="#55b6fa"/>
    <path id="Path_3524" data-name="Path 3524" d="M234.011,343.285v87.752h57.145V343.285ZM262.585,409A18.615,18.615,0,1,1,281.2,390.382,18.616,18.616,0,0,1,262.585,409Z" transform="translate(153.595 242.463)" fill="#303637"/>
    <rect id="Rectangle_100" data-name="Rectangle 100" width="175.431" height="17.275" transform="translate(328.464 673.501)" fill="#303637"/>
    <path id="Path_3525" data-name="Path 3525" d="M499.121,401.465H549.16V86.253H251.694" transform="translate(167.512 40.16)" fill="none" stroke="#fff" stroke-miterlimit="10" stroke-width="1" stroke-dasharray="4.131"/>
    <circle id="Ellipse_9" data-name="Ellipse 9" cx="8.935" cy="8.935" r="8.935" transform="translate(656.289 432.991)" fill="#fff"/>
    <circle id="Ellipse_10" data-name="Ellipse 10" cx="8.935" cy="8.935" r="8.935" transform="translate(401.335 117.477)" fill="#fff"/>
    <path id="Path_3526" data-name="Path 3526" d="M223.976,233.835c7.168-2.865,16.191-4.8,21.92.374,3,2.7,4.314,6.769,5.274,10.688a191.4,191.4,0,0,1,3.817,23.822c1.346,11.741,2.552,23.627,1.031,35.347s-6.028,23.414-14.6,31.549c-2.043,1.939-4.4,3.708-7.166,4.248a18.436,18.436,0,0,1-6.078-.171l-20.664-2.89a27.485,27.485,0,0,1-6.882-1.573,22.624,22.624,0,0,1-7.954-6.35c-14.332-16.425-18.36-40.156-11.895-60.744C186.486,249.958,207.424,240.449,223.976,233.835Z" transform="translate(109.343 154.071)" fill="#ffa97c"/>
    <path id="Path_3527" data-name="Path 3527" d="M199.861,248.114l-8.638,3.734,8.638-1.239v-3.681" transform="translate(119.917 166.624)" fill="#d66634" opacity="0.3"/>
    <g id="Group_2243" data-name="Group 2243" transform="translate(319.778 235.544)">
      <g id="Group_2242" data-name="Group 2242">
        <rect id="Rectangle_101" data-name="Rectangle 101" width="206.045" height="268.668" fill="#f9fafe"/>
        <rect id="Rectangle_102" data-name="Rectangle 102" width="206.045" height="17.164" fill="#303637"/>
      </g>
      <circle id="Ellipse_11" data-name="Ellipse 11" cx="3.127" cy="3.127" r="3.127" transform="translate(189.078 4.219)" fill="#f06359"/>
      <circle id="Ellipse_12" data-name="Ellipse 12" cx="3.127" cy="3.127" r="3.127" transform="translate(177.015 4.219)" fill="#e6e7e8"/>
      <circle id="Ellipse_13" data-name="Ellipse 13" cx="3.127" cy="3.127" r="3.127" transform="translate(164.952 4.219)" fill="#e6e7e8"/>
    </g>
    <line id="Line_2" data-name="Line 2" x1="232.789" transform="translate(145.782 724.824)" fill="none" stroke="#f1f1f2" stroke-linecap="round" stroke-linejoin="round" stroke-width="5"/>
    <line id="Line_3" data-name="Line 3" x1="143.435" transform="translate(379.819 195.47)" fill="none" stroke="#f1f1f2" stroke-linecap="round" stroke-linejoin="round" stroke-width="5"/>
    <line id="Line_4" data-name="Line 4" x1="143.435" transform="translate(577.35 760.322)" fill="none" stroke="#f1f1f2" stroke-linecap="round" stroke-linejoin="round" stroke-width="5"/>
    <path id="Path_3528" data-name="Path 3528" d="M133.061,391.574a6.851,6.851,0,1,1-6.85-6.852A6.85,6.85,0,0,1,133.061,391.574Z" transform="translate(63.356 275.077)" fill="none" stroke="#f1f1f2" stroke-linecap="round" stroke-linejoin="round" stroke-width="2.5"/>
    <circle id="Ellipse_14" data-name="Ellipse 14" cx="8.387" cy="8.387" r="8.387" transform="translate(522.245 155.077)" fill="none" stroke="#f1f1f2" stroke-linecap="round" stroke-linejoin="round" stroke-width="3"/>
    <path id="Path_3529" data-name="Path 3529" d="M427.837,418.114a8.387,8.387,0,1,1-8.387-8.387A8.387,8.387,0,0,1,427.837,418.114Z" transform="translate(292.948 294.758)" fill="none" stroke="#f1f1f2" stroke-linecap="round" stroke-linejoin="round" stroke-width="3"/>
    <circle id="Ellipse_15" data-name="Ellipse 15" cx="8.387" cy="8.387" r="8.387" transform="translate(599.253 35.228)" fill="none" stroke="#f1f1f2" stroke-linecap="round" stroke-linejoin="round" stroke-width="3"/>
    <g id="Group_2262" data-name="Group 2262" transform="translate(334.801 272.037)">
      <circle id="Ellipse_16" data-name="Ellipse 16" cx="34.299" cy="34.299" r="34.299" fill="#929497"/>
      <g id="Group_2259" data-name="Group 2259" transform="translate(0.596 1.046)">
        <g id="Group_2258" data-name="Group 2258" clip-path="url(#clip-path)">
          <g id="Group_2257" data-name="Group 2257" transform="translate(16.47 6.123)">
            <g id="Group_2246" data-name="Group 2246" transform="translate(0 40.545)">
              <path id="Path_3530" data-name="Path 3530" d="M235.934,196.551l3.079.684a12.418,12.418,0,0,1,9.727,12.125v4.461a1.34,1.34,0,0,1-1.34,1.34h-32a1.341,1.341,0,0,1-1.34-1.34V209.36a12.42,12.42,0,0,1,9.727-12.125l2.62-.583c.038-.009.073-.014.111-.02l3.085-.416a1.2,1.2,0,0,1,.179-.012h3.869a1.373,1.373,0,0,1,.209.016l1.993.315Z" transform="translate(-213.974 -193.052)" fill="#f7d9bc"/>
              <g id="Group_2244" data-name="Group 2244" transform="translate(4.194 3.277)">
                <path id="Path_3531" data-name="Path 3531" d="M239.443,197.677l-5.359-1.19-1.34-.213-.043,3.333,0-.005.011-.252c0,.084-.005.168-.011.252l0,.013v-.007a3.136,3.136,0,0,1-6.262-.257v-3.006l-1.785.241-4.914,1.092a9.547,9.547,0,0,0-3.379,1.48v15.95h26.593V199.251A9.528,9.528,0,0,0,239.443,197.677Z" transform="translate(-216.359 -196.274)" fill="#00adee"/>
              </g>
              <path id="Path_3532" data-name="Path 3532" d="M218.206,207.521H214.1s-1.038-6.144,4.108-9.634Z" transform="translate(-214.012 -191.727)" fill="#00adee"/>
              <path id="Path_3533" data-name="Path 3533" d="M231.27,207.521h4.108s1.038-6.144-4.108-9.634Z" transform="translate(-200.429 -191.727)" fill="#00adee"/>
              <g id="Group_2245" data-name="Group 2245" transform="translate(14.273)">
                <path id="Path_3534" data-name="Path 3534" d="M228.3,197.632l-.043,3.426.012-.265a3.137,3.137,0,0,1-6.274,0V195.82l.777-.711h.518l3.065-.668.9.186L228.3,195" transform="translate(-221.999 -194.44)" fill="#f7d9bc"/>
                <path id="Path_3535" data-name="Path 3535" d="M226.359,194.44l-3.065.668h-.518l-.777.711v2.4a5.841,5.841,0,0,0,6.3.089l.007-.676V195l-1.042-.37Z" transform="translate(-221.999 -194.44)" fill="#f6a49b"/>
              </g>
            </g>
            <path id="Path_3536" data-name="Path 3536" d="M229.295,213.015h0a12.53,12.53,0,0,1-12.531-12.531V186.538a12.532,12.532,0,0,1,12.531-12.533h0a12.533,12.533,0,0,1,12.533,12.533v13.946A12.532,12.532,0,0,1,229.295,213.015Z" transform="translate(-211.846 -169.979)" fill="#f7d9bc"/>
            <path id="Path_3537" data-name="Path 3537" d="M228.84,185.008a1.313,1.313,0,1,1-1.313-1.313A1.313,1.313,0,0,1,228.84,185.008Z" transform="translate(-204.409 -162.353)" fill="#292b2b"/>
            <path id="Path_3538" data-name="Path 3538" d="M222.688,185.008a1.314,1.314,0,1,1-1.314-1.313A1.313,1.313,0,0,1,222.688,185.008Z" transform="translate(-209.251 -162.353)" fill="#292b2b"/>
            <g id="Group_2248" data-name="Group 2248" transform="translate(13.013 33.475)">
              <g id="Group_2247" data-name="Group 2247">
                <path id="Path_3539" data-name="Path 3539" d="M225.94,192.316A8.306,8.306,0,0,1,221.43,191a.277.277,0,0,1-.086-.395.3.3,0,0,1,.4-.064,7.856,7.856,0,0,0,8.417,0,.3.3,0,0,1,.4.061.278.278,0,0,1-.086.4A8.283,8.283,0,0,1,225.94,192.316Z" transform="translate(-221.294 -190.484)" fill="#f7a584"/>
              </g>
            </g>
            <g id="Group_2250" data-name="Group 2250" transform="translate(15.982 39.038)">
              <g id="Group_2249" data-name="Group 2249">
                <path id="Path_3540" data-name="Path 3540" d="M223.234,194.419a.279.279,0,0,1-.123-.529,3.243,3.243,0,0,1,2.609-.038.278.278,0,1,1-.225.508,2.576,2.576,0,0,0-1.038-.207,2.52,2.52,0,0,0-1.1.238A.3.3,0,0,1,223.234,194.419Z" transform="translate(-222.955 -193.597)" fill="#f7a584"/>
              </g>
            </g>
            <path id="Path_3541" data-name="Path 3541" d="M230.789,184.266h0a2.422,2.422,0,0,1,2.421,2.421v1.4a2.423,2.423,0,0,1-2.421,2.423h0" transform="translate(-200.807 -161.903)" fill="#f6a49b"/>
            <path id="Path_3542" data-name="Path 3542" d="M217.831,184.266h0a2.423,2.423,0,0,0-2.423,2.421v1.4a2.423,2.423,0,0,0,2.423,2.423h0" transform="translate(-212.913 -161.903)" fill="#f6a49b"/>
            <path id="Path_3543" data-name="Path 3543" d="M224.136,184.9l-.976,4.008a1.4,1.4,0,0,0,1.36,1.73h0a1.4,1.4,0,0,0,1.358-1.73L224.9,184.9A.394.394,0,0,0,224.136,184.9Z" transform="translate(-206.843 -161.64)" fill="#f6a49b"/>
            <g id="Group_2253" data-name="Group 2253" transform="translate(9.707 17.386)">
              <g id="Group_2252" data-name="Group 2252">
                <g id="Group_2251" data-name="Group 2251">
                  <path id="Path_3544" data-name="Path 3544" d="M223.7,183.4a.561.561,0,0,1-.348-.123c-1.782-1.437-2.877-.138-2.922-.082a.556.556,0,1,1-.861-.7c.629-.768,2.375-1.776,4.482-.08a.557.557,0,0,1-.35.99Z" transform="translate(-219.444 -181.481)" fill="#27282a"/>
                </g>
              </g>
            </g>
            <g id="Group_2256" data-name="Group 2256" transform="translate(20.617 17.386)">
              <g id="Group_2255" data-name="Group 2255">
                <g id="Group_2254" data-name="Group 2254">
                  <path id="Path_3545" data-name="Path 3545" d="M226.1,183.4a.556.556,0,0,1-.349-.99c2.105-1.7,3.851-.688,4.48.08a.556.556,0,0,1-.858.708c-.12-.141-1.2-1.314-2.925.079A.561.561,0,0,1,226.1,183.4Z" transform="translate(-225.549 -181.481)" fill="#27282a"/>
                </g>
              </g>
            </g>
            <path id="Path_3546" data-name="Path 3546" d="M227.073,193.827q0,.177-.011.354" transform="translate(-203.741 -154.378)" fill="#f7d9bc"/>
            <rect id="Rectangle_103" data-name="Rectangle 103" width="1.562" height="6.315" transform="translate(30.841 56.339)" fill="#f6a49b"/>
            <rect id="Rectangle_104" data-name="Rectangle 104" width="1.562" height="6.315" transform="translate(2.632 56.339)" fill="#f6a49b"/>
            <path id="Path_3547" data-name="Path 3547" d="M229.348,205.314h.023A12.532,12.532,0,0,0,241.9,192.783v-8.909l-.038-.084s-.722,12.379-10.369,16.137a5.969,5.969,0,0,1-4.328,0c-9.648-3.758-10.37-16.137-10.37-16.137l-.036.084v8.909a12.53,12.53,0,0,0,12.531,12.531h.025" transform="translate(-211.847 -162.277)" fill="#f7a584" opacity="0.2"/>
            <path id="Path_3548" data-name="Path 3548" d="M241.056,178.3c-1.791-4.191-6-7.761-15.533-6.155-.157.263-2.438.35-3.96,2.9-2.8.343-6.507,3.158-4.559,17.662,0,0,2.1-16.32,7.561-10.32l0,0c1.776,2.034,6.467,5.667,17.445,5.924.154,2.389.072,4.387.072,4.387C245.471,181.745,242.685,178.991,241.056,178.3Z" transform="translate(-212.085 -171.752)" fill="#27282a"/>
            <path id="Path_3549" data-name="Path 3549" d="M227.816,180.889a9.732,9.732,0,0,1-3.944-3.381,4.28,4.28,0,0,0-4.137-1.819l.091.447a3.747,3.747,0,0,1,3.672,1.633,10.166,10.166,0,0,0,4.132,3.535c2.484,1.115,6.7,2.389,13.228,2.648.023-.152.046-.306.066-.452C234.444,183.249,230.27,181.988,227.816,180.889Z" transform="translate(-209.508 -168.688)" fill="#f3f3f3" opacity="0.1"/>
            <path id="Path_3550" data-name="Path 3550" d="M241.051,180.81c-10.98-.214-13.36-2.654-13.878-3.749l-.052-.1a6.381,6.381,0,0,0-7.409-2.536l.173.422a5.9,5.9,0,0,1,6.85,2.355l.025.054c1.163,2.454,6.224,3.858,14.332,4.008C241.082,181.111,241.068,180.959,241.051,180.81Z" transform="translate(-209.526 -169.918)" fill="#f3f3f3" opacity="0.1"/>
          </g>
        </g>
      </g>
      <g id="Group_2260" data-name="Group 2260" transform="translate(36.825 26.848)">
        <path id="Path_3551" data-name="Path 3551" d="M231.454,185.956a3.193,3.193,0,1,1-3.193-3.192A3.193,3.193,0,0,1,231.454,185.956Z" transform="translate(-225.069 -182.764)" fill="none" stroke="#27282a" stroke-miterlimit="10" stroke-width="0.397"/>
        <line id="Line_5" data-name="Line 5" x2="3.924" transform="translate(6.232 2.228)" fill="none" stroke="#27282a" stroke-miterlimit="10" stroke-width="0.397"/>
      </g>
      <g id="Group_2261" data-name="Group 2261" transform="translate(21.982 26.848)">
        <path id="Path_3552" data-name="Path 3552" d="M218.846,185.956a3.193,3.193,0,1,0,3.192-3.192A3.193,3.193,0,0,0,218.846,185.956Z" transform="translate(-215.123 -182.764)" fill="none" stroke="#27282a" stroke-miterlimit="10" stroke-width="0.397"/>
        <line id="Line_6" data-name="Line 6" x1="3.876" transform="translate(0 2.228)" fill="none" stroke="#27282a" stroke-miterlimit="10" stroke-width="0.397"/>
      </g>
      <line id="Line_7" data-name="Line 7" x2="5.04" transform="translate(31.938 29.77)" fill="none" stroke="#27282a" stroke-miterlimit="10" stroke-width="0.397"/>
    </g>
    <rect id="Rectangle_105" data-name="Rectangle 105" width="86.523" height="10.474" transform="translate(419.206 284.019)" fill="#d0d2d3"/>
    <rect id="Rectangle_106" data-name="Rectangle 106" width="86.523" height="10.474" transform="translate(419.206 306.437)" fill="#d0d2d3"/>
    <rect id="Rectangle_107" data-name="Rectangle 107" width="86.523" height="10.474" transform="translate(419.206 328.856)" fill="#d0d2d3"/>
    <rect id="Rectangle_108" data-name="Rectangle 108" width="130.91" height="10.474" transform="translate(374.818 362.65)" fill="#d0d2d3"/>
    <rect id="Rectangle_109" data-name="Rectangle 109" width="130.91" height="10.474" transform="translate(374.818 396.444)" fill="#d0d2d3"/>
    <rect id="Rectangle_110" data-name="Rectangle 110" width="130.91" height="10.474" transform="translate(374.818 430.237)" fill="#d0d2d3"/>
    <rect id="Rectangle_111" data-name="Rectangle 111" width="130.91" height="10.474" transform="translate(374.818 464.031)" fill="#d0d2d3"/>
    <g id="Group_2263" data-name="Group 2263" transform="translate(341.678 360.03)">
      <rect id="Rectangle_112" data-name="Rectangle 112" width="14.52" height="12.956" transform="translate(0)" fill="none" stroke="#58595b" stroke-miterlimit="10" stroke-width="1"/>
      <rect id="Rectangle_113" data-name="Rectangle 113" width="14.52" height="12.956" transform="translate(0 35.172)" fill="none" stroke="#58595b" stroke-miterlimit="10" stroke-width="1"/>
      <rect id="Rectangle_114" data-name="Rectangle 114" width="14.52" height="12.956" transform="translate(0 70.344)" fill="none" stroke="#58595b" stroke-miterlimit="10" stroke-width="1"/>
      <rect id="Rectangle_115" data-name="Rectangle 115" width="14.52" height="12.956" transform="translate(0 105.516)" fill="none" stroke="#58595b" stroke-miterlimit="10" stroke-width="1"/>
    </g>
    <g id="Group_2276" data-name="Group 2276" transform="translate(208.262 311.674)">
      <g id="Group_2275" data-name="Group 2275">
        <g id="Group_2274" data-name="Group 2274">
          <g id="Group_2273" data-name="Group 2273" clip-path="url(#clip-path-2)">
            <g id="Group_2267" data-name="Group 2267" transform="translate(-64.846 49.732)">
              <g id="Group_2266" data-name="Group 2266">
                <path id="Path_3553" data-name="Path 3553" d="M226.308,334.463c-3.185-2.359-4.135-6.2-4.334-10.3-2.33,10.494-9.136,10.1-10.8,10.99-.086.057-.164.12-.25.177a.925.925,0,0,1,.25-.177c10.061-6.934,10.928-19.115,11-20.825a64.882,64.882,0,0,0-10.864-36.347c-4.718-7.048-11.571-14.856-5.663-23.328,1.519-2.18,3.887-3.578,6.022-5.157a30.244,30.244,0,0,0,10.9-14.536c.917-2.777,3.09-18.189-2.768-17.161a6.507,6.507,0,0,0-2.568,1.328,187.078,187.078,0,0,1-19.336,12.229c-5.849,3.217-9.729,4.209-11.959,10.794-7.273,21.482-15.24,41.939-10.855,65,2.752,14.481-5.608,29.932-13.28,42.516-1.3,2.128-2.732,4.253-3.254,6.691,11.119,13.137,22.828,26.386,36.9,36.3,5.193-7.177,10.447-14.423,17.136-20.233,5.96-5.175,6.432-8.01,13.315-11.868v-12.7Z" transform="translate(-49.218 -217.749)" fill="#ffbe90"/>
                <g id="Group_2265" data-name="Group 2265" transform="translate(0 1.942)">
                  <path id="Path_3554" data-name="Path 3554" d="M185.263,236.636a.923.923,0,0,0,.407.4.94.94,0,0,0,.726-.145,65.167,65.167,0,0,0,6.764-3.966,11.915,11.915,0,0,0,2.686-2.248,9.686,9.686,0,0,0,1.86-4.537,18.143,18.143,0,0,0-.247-7.307q-7.173,5.12-14.806,9.548A17.964,17.964,0,0,0,185.263,236.636Z" transform="translate(-30.244 -218.835)" fill="#f4cdb3"/>
                  <path id="Path_3555" data-name="Path 3555" d="M183.159,233.6c-1.144-.885-1.507-4.62-1.682-5.963a19.4,19.4,0,0,1-.155-2.354l-.261.147c-.382.211-.758.411-1.124.606A9.355,9.355,0,0,0,183.159,233.6Z" transform="translate(-32.386 -213.762)" fill="#ffa97c"/>
                  <path id="Path_3556" data-name="Path 3556" d="M181.314,232.861c-1.145-.885-1.506-4.62-1.682-5.963-.03-.229-.054-.456-.073-.683-.479.248-.94.49-1.387.729A8.954,8.954,0,0,0,181.314,232.861Z" transform="translate(-33.771 -213.026)" fill="#ffa97c"/>
                  <path id="Path_3557" data-name="Path 3557" d="M186.952,289.861c-.272-13.621-7.817-25.784-10.336-38.971q-.182-.949-.37-1.9c-2.432,10.837-3.39,21.87-1.165,33.576,2.752,14.481-5.608,29.93-13.28,42.516-1.3,2.128-2.732,4.253-3.254,6.691q2.694,3.182,5.445,6.36c2.046-2.466,3.921-5.111,5.747-7.72C178.315,318.17,187.252,304.806,186.952,289.861Z" transform="translate(-49.218 -195.102)" fill="#ffa97c" opacity="0.4"/>
                  <path id="Path_3558" data-name="Path 3558" d="M180.563,240.549a42.917,42.917,0,0,0,9.082-1.875,12.128,12.128,0,0,1,1.3-1.356,17.862,17.862,0,0,0-1.742.656,30.172,30.172,0,0,1-9.763,2.7Q180,240.613,180.563,240.549Z" transform="translate(-32.772 -204.288)" fill="#ffa97c"/>
                  <path id="Path_3559" data-name="Path 3559" d="M190.4,327.855q1.509-2.072,3.061-4.116a36.812,36.812,0,0,0-2.947-3.14c-8.01-7.506-16.591-14.96-23.13-23.859l17.74,24.143C186.848,323.23,188.581,325.58,190.4,327.855Z" transform="translate(-42.263 -157.518)" fill="#ffa97c"/>
                  <path id="Path_3560" data-name="Path 3560" d="M161.115,286.319S177,319.866,206.529,341.831c.457,1.294-5.225,9.684-5.225,9.684s-37.6-23.287-50.524-57.188C152.071,290.792,161.115,286.319,161.115,286.319Z" transform="translate(-55.332 -165.72)" fill="#f9fafe"/>
                  <g id="Group_2264" data-name="Group 2264" transform="translate(0 120.599)">
                    <path id="Path_3561" data-name="Path 3561" d="M190.232,286.319s5.813,35.915,67.2,67.944c-2.534-1.721-64.619,83.555-64.619,83.555l-95.448-75.75Z" transform="translate(-97.369 -286.319)" fill="#4d4d4d"/>
                    <path id="Path_3562" data-name="Path 3562" d="M211.825,314.151h-4.991L118.406,370l57.853,45.913s62.085-85.275,64.619-83.555a203.875,203.875,0,0,1-29.052-18.207Z" transform="translate(-80.811 -264.413)" fill="#303637" opacity="0.1"/>
                  </g>
                </g>
              </g>
              <path id="Path_3563" data-name="Path 3563" d="M183.055,329.567a6.767,6.767,0,1,1-6.768-6.766A6.766,6.766,0,0,1,183.055,329.567Z" transform="translate(-40.58 -135.065)" fill="#ffce55"/>
            </g>
            <g id="Group_2272" data-name="Group 2272" transform="translate(209.46 29.624)">
              <g id="Group_2271" data-name="Group 2271">
                <rect id="Rectangle_116" data-name="Rectangle 116" width="155.299" height="220.732" fill="none"/>
                <g id="Group_2270" data-name="Group 2270" transform="translate(11.739 28.581)">
                  <g id="Group_2268" data-name="Group 2268" transform="translate(19.209 1.155)">
                    <path id="Path_3564" data-name="Path 3564" d="M321.705,240.467a34.248,34.248,0,0,1,4.008,7.479q3.222,7.524,6.046,15.21c2.007,5.463,3.873,11.032,4.546,16.813a83.977,83.977,0,0,1,.289,11.323q-.482,24.82-.967,49.641c-2.464-2.936-3.912-6.573-5.267-10.16a409.132,409.132,0,0,1-16.48-55.011c-1.369-6.1-2.606-12.254-4.729-18.133-1.428-3.949-3.245-7.747-5.059-11.536-2.8-5.853-5.485-11.784-8.447-17.556,4.067-1.5,8.623,1.785,12.422,3.2C313.2,233.654,318.285,236,321.705,240.467Z" transform="translate(-246.564 -219.188)" fill="#fba478"/>
                    <path id="Path_3565" data-name="Path 3565" d="M270.915,241.8a9.919,9.919,0,0,0,3.222,1.8c2.659.622,5.145-1.809,7.6-2.418a24.955,24.955,0,0,1,4.825-.549q5.71-.273,11.419-.549a3.07,3.07,0,0,1,1.514.182,3.239,3.239,0,0,1,1.122,1.171,34.345,34.345,0,0,0,5.1,5.876,5.128,5.128,0,0,1,1.61,2.041c.431,1.344-.381,2.729-1.015,3.989a17.971,17.971,0,0,0-1.725,10.578,3.891,3.891,0,0,1,.016,1.733,3.936,3.936,0,0,1-1.437,1.651,16.778,16.778,0,0,0-6.019,13.306,35.039,35.039,0,0,0,15.569-2.727,18.664,18.664,0,0,0,7.256-5.006,17.017,17.017,0,0,0,3.479-9.316,50.666,50.666,0,0,0-.415-10.07c-.336-3.117-.693-6.3-2.077-9.118a17.857,17.857,0,0,0-6.176-6.7,33.037,33.037,0,0,0-11.614-4.729c-7.218-1.551-15.122-2.466-22.008.5q-5.428,2.343-10.858,4.684a1.69,1.69,0,0,0-.847.6C268.9,239.686,269.752,240.844,270.915,241.8Z" transform="translate(-267.318 -216.549)" fill="#e67944"/>
                    <path id="Path_3566" data-name="Path 3566" d="M310.32,269.831c-.011-1.807-.377-3.638.105-5.374.581-2.1,2.28-3.653,3.621-5.367a2.013,2.013,0,0,0,.534-1.138,2.131,2.131,0,0,0-.35-1.036c-3.628-6.646-3.554-13.269-11.8-15.712-8.424-2.5-18.625-.9-27.348-.7-2.85.063-6.208-.4-6.868-3.919a1.16,1.16,0,0,1,.025-.663,1.2,1.2,0,0,1,.508-.5,17.39,17.39,0,0,1,4.77-1.558c4.437-1.2,8.455-3.029,13-3.9q10.6-2.029,21.193-4.062a5.373,5.373,0,0,1,5.751,1.482l11.623,9.543c2.761,2.268,5.638,4.689,6.912,8.029,1.079,2.831.867,5.969.684,8.994a302.747,302.747,0,0,0-.13,34.217c.173,3.292.32,7.39-1.991,10.051-4.346,5.006-16.87.763-21.593-1.968-6.4-3.7-8.569-10.04-3.946-16.171,2.118-2.806,4.811-5.5,5.236-8.991A9.747,9.747,0,0,0,310.32,269.831Z" transform="translate(-268.181 -221.165)" fill="#fba478"/>
                    <path id="Path_3567" data-name="Path 3567" d="M359.152,321.248c-1.271-13.165-1.948-25.782-4.441-38.77-.043-.222.359,3.07.4,2.849.865-4.271-.468-8.712-2.486-12.576s-4.705-7.336-6.844-11.132c-5.052-8.959-6.918-19.459-12.154-28.311a13.685,13.685,0,0,0-4.981-5.393,16.251,16.251,0,0,0-5.679-1.426l-19.586-2.455a72.477,72.477,0,0,0-12.872-.842c-6.744.363-12.854,2.218-19.4.547-1.351-.345-2.661,1.04-2.727,2.434a5.82,5.82,0,0,0,1.608,3.76,20.621,20.621,0,0,0,12.794,7.34c3.631.554,7.363.12,10.989.709a37.843,37.843,0,0,1,9.252,3.176q8.007,3.584,15.876,7.461c1.7.838,3.6,1.957,3.885,3.833.252,1.687-.933,3.206-1.923,4.6a27.562,27.562,0,0,0-4.042,23.025c1.147,4.132-3.869,5.57-7.347,6.162-3.823.649-6.11-1.807-8.113-5.052-3.576-5.794-4.975-12.619-7.03-19.109a9.208,9.208,0,0,0-.45-1.321,56.383,56.383,0,0,0-4.584-9.622,40.347,40.347,0,0,0-3.342-4.845,9.388,9.388,0,0,0-10.485-2.9,9.729,9.729,0,0,0-5.116,4.936c-2.386,4.764-.976,9.379-.134,14.316q.742,4.367,1.46,8.737a64.333,64.333,0,0,0,5.034,17.642c4.239,8.809,6.6,17.626,9.184,26.836,2.722,9.7,8.987,19.156,14.386,27.544,11.309,17.574,24.81,33.879,33.567,52.99a167.047,167.047,0,0,1,10.469,32.264c1.06,4.609,2.707,27.757,7.127,29.086,2.018.608,7-3.647,8.957-4.389,5.29-2.009,11.384-2.881,16.9-4.116,3.488-.779,31.561-8.419,33.089-6.144C386.689,407.792,363.3,364.147,359.152,321.248Z" transform="translate(-268.021 -223.136)" fill="#ffbe90"/>
                    <path id="Path_3568" data-name="Path 3568" d="M269.469,244.531s-.87-12.958,13.153-6.544c.54.177,3.481,9.752,3.31,12.086-.361-.717-5.722,4.727-13.08,5.292C272.637,255.652,269.469,244.531,269.469,244.531Z" transform="translate(-267.176 -212.851)" fill="#f4cdb3"/>
                    <path id="Path_3569" data-name="Path 3569" d="M271.833,226.39a20.827,20.827,0,0,0,9.5.7q-.381-1.7-.765-3.4a32.011,32.011,0,0,1-10.054-.086,5.149,5.149,0,0,0,.734,2.48A1.32,1.32,0,0,0,271.833,226.39Z" transform="translate(-266.342 -222.764)" fill="#f4cdb3"/>
                    <path id="Path_3570" data-name="Path 3570" d="M278.726,228.535a30.019,30.019,0,0,1-.143-5.132c-.266.032-.531.064-.8.1A27.262,27.262,0,0,0,278.726,228.535Z" transform="translate(-260.62 -222.926)" fill="#ffac7a"/>
                    <path id="Path_3571" data-name="Path 3571" d="M279.952,226.857a14.11,14.11,0,0,1,.2-3.624q-.332.027-.665.059c0,.143-.009.286,0,.431A22.135,22.135,0,0,0,279.952,226.857Z" transform="translate(-259.285 -223.06)" fill="#ffac7a"/>
                    <path id="Path_3572" data-name="Path 3572" d="M282.324,233.07c.676-.457,1.333-.924,1.96-1.367a15.263,15.263,0,0,0,3.07-2.6c-1.408,1.7-4.707,2.947-6.773,3.865C281.163,232.99,281.744,233.022,282.324,233.07Z" transform="translate(-258.421 -218.44)" fill="#ffac7a"/>
                    <path id="Path_3573" data-name="Path 3573" d="M292.529,235.954a49.765,49.765,0,0,0,4.727-1.784,17.137,17.137,0,0,1-5.885,1.253C291.755,235.6,292.145,235.773,292.529,235.954Z" transform="translate(-249.929 -214.452)" fill="#ffac7a"/>
                    <path id="Path_3574" data-name="Path 3574" d="M301,232.881a22.273,22.273,0,0,1,.22-7.5c-.406-.091-.817-.163-1.229-.229C299.431,227.954,300.589,230.229,301,232.881Z" transform="translate(-243.263 -221.548)" fill="#ffac7a"/>
                    <path id="Path_3575" data-name="Path 3575" d="M287.8,256.967a62.1,62.1,0,0,1,.986,15.774,80.265,80.265,0,0,0,.407-14.407A9.94,9.94,0,0,1,287.8,256.967Z" transform="translate(-252.739 -196.509)" fill="#fba478"/>
                    <path id="Path_3576" data-name="Path 3576" d="M310.527,241.921a55.721,55.721,0,0,1-12.179-3.365,3.424,3.424,0,0,1,.861,1.758,3.313,3.313,0,0,1-.045,1.167A25.66,25.66,0,0,0,310.527,241.921Z" transform="translate(-244.437 -211)" fill="#ffac7a"/>
                    <path id="Path_3577" data-name="Path 3577" d="M286.724,245.228a35.931,35.931,0,0,1-14.477,5.971c2.148-1.117,3.563-2.23,5.971-2.858C280.93,247.633,284.379,246.831,286.724,245.228Z" transform="translate(-264.981 -205.749)" fill="#ffac7a"/>
                    <path id="Path_3578" data-name="Path 3578" d="M272.924,251.57a14.669,14.669,0,0,0,7.282-.089,11.507,11.507,0,0,0,6.015-3.889c-1.782,1.013-3.826,1.487-5.688,2.339A23.186,23.186,0,0,1,272.924,251.57Z" transform="translate(-264.448 -203.888)" fill="#ffac7a"/>
                  </g>
                  <path id="Path_3579" data-name="Path 3579" d="M293.017,315.3v8.744s52.617-12.306,60.369-24.3c-.861.495-5.168-6.827-5.168-6.827S342.91,305.387,293.017,315.3Z" transform="translate(-229.424 -167.057)" fill="#f9fafe"/>
                  <path id="Path_3580" data-name="Path 3580" d="M368.394,291.72s-24.161,25.832-81.855,35.523c-.195.647,27.194,98.2,27.194,98.2s105.7-38.118,105.053-39.087S368.394,291.72,368.394,291.72Z" transform="translate(-234.524 -168.001)" fill="#4d4d4d"/>
                  <path id="Path_3581" data-name="Path 3581" d="M368.013,395.611c-10.474-28.313-34.146-92-34.784-91.046-6.135,3.419-20.055,6.955-31.108,9.4-4.9,1.179-10.086,2.25-15.583,3.174-.195.647,27.194,98.2,27.194,98.2S341.178,405.447,368.013,395.611Z" transform="translate(-234.524 -157.9)" fill="#303637" opacity="0.1"/>
                  <g id="Group_2269" data-name="Group 2269">
                    <path id="Path_3582" data-name="Path 3582" d="M257.432,222.49S318.141,248,375.145,290.5c.372.981,2.221,5.885-6.292,8.174C368.482,299.005,275.571,241.454,257.432,222.49Z" transform="translate(-257.432 -222.49)" fill="#303637"/>
                    <path id="Path_3583" data-name="Path 3583" d="M257.432,222.49s5.222,5.052,10.008,8.753c.057.045,3.572.314,2.942-2.9C270.16,228.237,257.432,222.49,257.432,222.49Z" transform="translate(-257.432 -222.49)" fill="#999"/>
                    <path id="Path_3584" data-name="Path 3584" d="M257.432,222.49l4.316,3.982s1.708-.039,1.524-1.428C263.2,225.094,257.432,222.49,257.432,222.49Z" transform="translate(-257.432 -222.49)" fill="#131313"/>
                    <path id="Path_3585" data-name="Path 3585" d="M309.446,248.81c-.835,2.988-2.811,6.432-7.095,9.863l.929.593c4.192-3.4,6.235-6.811,7.154-9.822Q309.941,249.125,309.446,248.81Z" transform="translate(-222.078 -201.774)" fill="#131313"/>
                    <path id="Path_3586" data-name="Path 3586" d="M267.276,227.807s49.046,24.851,65.889,38.258c0,.491-1.666,2.289-1.666,2.289Z" transform="translate(-249.684 -218.305)" fill="#f1f1f1" opacity="0.2"/>
                    <path id="Path_3587" data-name="Path 3587" d="M306.874,253.726l26.034,18.393a2.753,2.753,0,0,0,1.8-3.433c.138-.123-27.208-17.411-27.208-17.411Z" transform="translate(-218.518 -199.835)" fill="#f1f1f1" opacity="0.2"/>
                  </g>
                </g>
              </g>
              <path id="Path_3588" data-name="Path 3588" d="M309.18,322.391a6.767,6.767,0,1,1-6.768-6.768A6.766,6.766,0,0,1,309.18,322.391Z" transform="translate(-215.616 -120.606)" fill="#ffce55"/>
            </g>
          </g>
        </g>
        <path id="Path_3590" data-name="Path 3590" d="M338.392,291.72s-9.168.484-13.727,4.339c-.239-.379,3.819,4.632,3.819,4.632Z" transform="translate(16.676 -109.796)" fill="#303637"/>
        <path id="Path_3591" data-name="Path 3591" d="M286.538,315.053s2.33-6.33,11.578-7.82v5.57Z" transform="translate(-13.325 -97.605)" fill="#303637"/>
      </g>
      <path id="Path_3592" data-name="Path 3592" d="M149.333,286.325a6.853,6.853,0,0,1,6.526,3.846c-.046.034-3.172,2.193-3.942,4.162C151.917,294.332,149.431,288.476,149.333,286.325Z" transform="translate(-121.315 -114.053)" fill="#303637"/>
      <path id="Path_3593" data-name="Path 3593" d="M182.831,318.32s9.607,6.049,9.318,10.756c0,0-9.58-5.243-11.83-6.612A41.1,41.1,0,0,0,182.831,318.32Z" transform="translate(-96.928 -88.86)" fill="#303637"/>
    </g>
    <path id="Path_3594" data-name="Path 3594" d="M207.026,215.69l9.556,12.3,22.84-16.766" transform="translate(132.356 138.52)" fill="none" stroke="#34bf6e" stroke-miterlimit="10" stroke-width="3"/>
    <path id="Path_3595" data-name="Path 3595" d="M207.026,235.448l9.556,12.3,22.84-16.766" transform="translate(132.356 154.072)" fill="none" stroke="#34bf6e" stroke-miterlimit="10" stroke-width="3"/>
    <path id="Path_3596" data-name="Path 3596" d="M207.026,255.207l9.556,12.3,22.84-16.766" transform="translate(132.356 169.623)" fill="none" stroke="#34bf6e" stroke-miterlimit="10" stroke-width="3"/>
    <path id="Path_3597" data-name="Path 3597" d="M207.026,274.965l9.556,12.3,22.84-16.766" transform="translate(132.356 185.174)" fill="none" stroke="#34bf6e" stroke-miterlimit="10" stroke-width="3"/>
    <path id="Path_3598" data-name="Path 3598" d="M391.569,327.287l86.449,31.669L454.9,385.083Z" transform="translate(277.604 229.871)" fill="#ffce55"/>
    <path id="Path_3599" data-name="Path 3599" d="M374.485,337.993l20.849,40.54-20.849,2.912Z" transform="translate(264.158 238.298)" fill="#ffce55"/>
    <path id="Path_3600" data-name="Path 3600" d="M147.054,340.734,93.946,388.425,79.307,369.982Z" transform="translate(31.832 240.455)" fill="#f9fafe"/>
    <g id="Group_2277" data-name="Group 2277" transform="translate(120.667 560.437)">
      <path id="Path_3601" data-name="Path 3601" d="M138.479,338.9,87.135,351.4l-2.5-22.276Z" transform="translate(-84.639 -329.122)" fill="#f9fafe"/>
    </g>
    <line id="Line_8" data-name="Line 8" x2="139.418" transform="translate(624.095 82.975)" fill="none" stroke="#f1f1f2" stroke-linecap="round" stroke-linejoin="round" stroke-width="5"/>
  </g>
</svg>
